# This file uses centimeters as units for non-parametric coordinates.

mtllib Ceiling_LP.mtl
g default
v 2.000000 3.000000 0.000000
v 0.000000 3.000000 0.000000
v 2.000000 3.000000 -1.000000
v 0.000000 3.000000 -1.000000
vt 0.499004 0.001992
vt 0.499004 0.998008
vt 0.000996 0.998008
vt 0.000996 0.001992
vn 0.000000 -1.000000 0.000000
vn 0.000000 -1.000000 0.000000
vn 0.000000 -1.000000 0.000000
vn 0.000000 -1.000000 0.000000
s off
g Ceiling_LP
usemtl initialShadingGroup
f 1/1/1 2/2/2 4/3/3 3/4/4
