# This file uses centimeters as units for non-parametric coordinates.

mtllib DoorwayDouble_LP.mtl
g default
v -0.075000 3.000000 -3.000000
v 0.075000 3.000000 -3.000000
v -0.075000 0.000000 -3.000000
v 0.075000 0.000000 -3.000000
v -0.075000 0.000000 1.000000
v 0.075000 0.000000 1.000000
v -0.075000 3.000000 1.000000
v 0.075000 3.000000 1.000000
v -0.075000 0.000000 -2.000000
v -0.075000 3.000000 -2.000000
v 0.075000 3.000000 -2.000000
v 0.075000 0.000000 -2.000000
v -0.075000 3.000000 0.000000
v -0.075000 0.000000 0.000000
v 0.075000 0.000000 0.000000
v 0.075000 3.000000 0.000000
v -0.075000 2.700000 -3.000000
v -0.075000 2.700000 -2.000000
v -0.075000 2.700000 0.000000
v -0.075000 2.700000 1.000000
v 0.075000 2.700000 1.000000
v 0.075000 2.700000 0.000000
v 0.075000 2.700000 -2.000000
v 0.075000 2.700000 -3.000000
v -0.089719 0.000000 0.000000
v 0.089719 0.000000 0.000000
v -0.089719 2.698793 0.000000
v 0.089719 2.698793 0.000000
v -0.089719 2.698793 -2.000000
v 0.089719 2.698793 -2.000000
v -0.089719 0.000000 -2.000000
v 0.089719 0.000000 -2.000000
v -0.089719 0.000000 -1.900000
v -0.089719 2.698793 -1.900000
v 0.089719 2.698793 -1.900000
v 0.089719 0.000000 -1.900000
v -0.089719 2.698793 -0.100000
v -0.089719 0.000000 -0.100000
v 0.089719 0.000000 -0.100000
v 0.089719 2.698793 -0.100000
v -0.089719 2.624037 0.000000
v -0.089719 2.624035 -0.100000
v -0.089719 2.624037 -1.900000
v -0.089719 2.624035 -2.000000
v 0.089719 2.624035 -2.000000
v 0.089719 2.624035 -1.900000
v 0.089719 2.624037 -0.100000
v 0.089719 2.624037 0.000000
vt 0.339741 0.427688
vt 0.339741 0.401786
vt 0.426081 0.401786
vt 0.426081 0.427688
vt 0.167061 0.401786
vt 0.167061 0.427688
vt 0.339741 0.168668
vt 0.426081 0.168668
vt 0.080721 0.427688
vt 0.080721 0.401786
vt 0.080721 0.168668
vt 0.167061 0.168668
vt 0.532511 0.401786
vt 0.618851 0.401786
vt 0.618851 0.427688
vt 0.532511 0.427688
vt 0.618851 0.168668
vt 0.532511 0.168668
vt 0.791531 0.427688
vt 0.791531 0.401786
vt 0.877871 0.427688
vt 0.877871 0.401786
vt 0.791531 0.168668
vt 0.877871 0.168668
vt 0.636494 0.681665
vt 0.645128 0.681665
vt 0.645128 0.908224
vt 0.636494 0.908224
vt 0.645128 0.914679
vt 0.636494 0.914679
vt 0.800540 0.914679
vt 0.800540 0.908224
vt 0.809174 0.908224
vt 0.809174 0.914679
vt 0.800540 0.681665
vt 0.809174 0.681665
vt 0.506884 0.908224
vt 0.498250 0.908224
vt 0.498250 0.681665
vt 0.506884 0.681665
vt 0.498250 0.914679
vt 0.506884 0.914679
vt 0.342838 0.914679
vt 0.342838 0.908224
vt 0.334204 0.908224
vt 0.334204 0.914679
vt 0.334204 0.681665
vt 0.342838 0.681665
vt 0.019564 0.211838
vt 0.006613 0.211838
vt 0.006613 0.125498
vt 0.019564 0.125498
vt 0.006613 0.384518
vt 0.019564 0.384518
vt 0.019564 0.470858
vt 0.006613 0.470858
vt 0.089736 0.629212
vt 0.102687 0.629212
vt 0.102687 0.715552
vt 0.089736 0.715552
vt 0.074369 0.629212
vt 0.074369 0.715552
vt 0.061418 0.715552
vt 0.061418 0.629212
vt 0.183409 0.832768
vt 0.183409 0.660088
vt 0.196360 0.660088
vt 0.196360 0.832768
vt 0.151640 0.660088
vt 0.167133 0.660088
vt 0.167133 0.668722
vt 0.151640 0.668722
vt 0.151640 0.824134
vt 0.167133 0.824134
vt 0.167133 0.832768
vt 0.151640 0.832768
vt 0.038961 0.619369
vt 0.038961 0.603876
vt 0.047595 0.603876
vt 0.047595 0.619369
vt 0.018047 0.619369
vt 0.018047 0.603876
vt 0.026681 0.603876
vt 0.026681 0.619369
vt 0.134456 0.809325
vt 0.118963 0.809325
vt 0.118963 0.653913
vt 0.134456 0.653913
vt 0.939473 0.094622
vt 0.952424 0.094622
vt 0.952424 0.120524
vt 0.939473 0.120524
vt 0.952424 0.353641
vt 0.939473 0.353641
vt 0.968558 0.327740
vt 0.981509 0.327740
vt 0.981509 0.353642
vt 0.968558 0.353642
vt 0.968558 0.094621
vt 0.981509 0.094621
vt 0.975336 0.766727
vt 0.975336 0.533609
vt 0.988287 0.533609
vt 0.988287 0.766727
vt 0.959969 0.533609
vt 0.959969 0.766727
vt 0.947018 0.766727
vt 0.947018 0.533609
vt 0.915249 0.681665
vt 0.930742 0.681665
vt 0.930742 0.908224
vt 0.915249 0.908224
vt 0.930742 0.914679
vt 0.915249 0.914679
vt 0.882572 0.688119
vt 0.898064 0.688119
vt 0.898064 0.914678
vt 0.882572 0.914678
vt 0.882572 0.681665
vt 0.898064 0.681665
vt 0.260806 0.679357
vt 0.260806 0.905916
vt 0.245314 0.905916
vt 0.245314 0.679357
vt 0.212636 0.679357
vt 0.228129 0.679357
vt 0.228129 0.905916
vt 0.212636 0.905916
vn 0.000000 1.000000 0.000000
vn 0.000000 1.000000 0.000000
vn 0.000000 1.000000 0.000000
vn 0.000000 1.000000 0.000000
vn 0.000000 0.000000 -1.000000
vn 0.000000 0.000000 -1.000000
vn 0.000000 0.000000 -1.000000
vn 0.000000 0.000000 -1.000000
vn -1.000000 0.000000 0.000000
vn -1.000000 0.000000 0.000000
vn -1.000000 0.000000 0.000000
vn -1.000000 0.000000 0.000000
vn 0.000000 0.000000 1.000000
vn 0.000000 0.000000 1.000000
vn 0.000000 0.000000 1.000000
vn 0.000000 0.000000 1.000000
vn 0.000000 -1.000000 0.000000
vn 0.000000 -1.000000 0.000000
vn 0.000000 -1.000000 0.000000
vn 0.000000 -1.000000 0.000000
vn 1.000000 0.000000 0.000000
vn 1.000000 0.000000 0.000000
vn 1.000000 0.000000 0.000000
vn 1.000000 0.000000 0.000000
vn -1.000000 0.000000 0.000000
vn -1.000000 0.000000 0.000000
vn -1.000000 0.000000 0.000000
vn -1.000000 0.000000 0.000000
vn 0.000000 -1.000000 0.000000
vn 0.000000 -1.000000 0.000000
vn 0.000000 -1.000000 0.000000
vn 0.000000 -1.000000 0.000000
vn 1.000000 0.000000 0.000000
vn 1.000000 0.000000 0.000000
vn 1.000000 0.000000 0.000000
vn 1.000000 0.000000 0.000000
vn 0.000000 1.000000 0.000000
vn 0.000000 1.000000 0.000000
vn 0.000000 1.000000 0.000000
vn 0.000000 1.000000 0.000000
vn -1.000000 0.000000 0.000000
vn -1.000000 0.000000 0.000000
vn -1.000000 0.000000 0.000000
vn -1.000000 0.000000 0.000000
vn 0.000000 0.000000 1.000000
vn 0.000000 0.000000 1.000000
vn 1.000000 0.000000 0.000000
vn 1.000000 0.000000 0.000000
vn 1.000000 0.000000 0.000000
vn 1.000000 0.000000 0.000000
vn 0.000000 0.000000 -1.000000
vn 0.000000 0.000000 -1.000000
vn -0.000001 -0.000000 1.000000
vn -0.000001 -0.000000 1.000000
vn -0.000001 -0.000000 1.000000
vn -0.000001 -0.000000 1.000000
vn 0.000000 0.000000 -1.000000
vn 0.000000 0.000000 -1.000000
vn 0.000000 0.000000 -1.000000
vn 0.000000 0.000000 -1.000000
vn 0.000000 -1.000000 0.000000
vn 0.000000 -1.000000 0.000000
vn 0.000000 -1.000000 0.000000
vn 0.000000 -1.000000 0.000000
vn 0.000000 0.000000 1.000000
vn 0.000000 0.000000 1.000000
vn 0.000000 0.000000 1.000000
vn 0.000000 0.000000 1.000000
vn 0.000000 1.000000 0.000000
vn 0.000000 1.000000 0.000000
vn 0.000000 1.000000 0.000000
vn 0.000000 1.000000 0.000000
vn 0.000000 0.000000 -1.000000
vn 0.000000 0.000000 -1.000000
vn 0.000000 0.000000 -1.000000
vn 0.000000 0.000000 -1.000000
vn 0.000000 -1.000000 0.000000
vn 0.000000 -1.000000 0.000000
vn 0.000000 -1.000000 0.000000
vn 0.000000 -1.000000 0.000000
vn 1.000000 0.000000 0.000000
vn 1.000000 0.000000 0.000000
vn 1.000000 0.000000 0.000000
vn 1.000000 0.000000 0.000000
vn -1.000000 0.000000 0.000000
vn -1.000000 0.000000 0.000000
vn -1.000000 0.000000 0.000000
vn -1.000000 0.000000 0.000000
vn -1.000000 0.000000 0.000000
vn -1.000000 0.000000 0.000000
vn -1.000000 0.000000 0.000000
vn -1.000000 0.000000 0.000000
vn 0.000000 -1.000000 0.000000
vn 0.000000 -1.000000 0.000000
vn 0.000000 -1.000000 0.000000
vn 0.000000 -1.000000 0.000000
vn 1.000000 0.000000 0.000000
vn 1.000000 0.000000 0.000000
vn 1.000000 0.000000 0.000000
vn 1.000000 0.000000 0.000000
vn 0.000000 1.000000 0.000000
vn 0.000000 1.000000 0.000000
vn 0.000000 1.000000 0.000000
vn 0.000000 1.000000 0.000000
vn -1.000000 0.000000 0.000000
vn -1.000000 0.000000 0.000000
vn -1.000000 0.000000 0.000000
vn -1.000000 0.000000 0.000000
vn 0.000000 0.000000 -1.000000
vn 0.000000 0.000000 -1.000000
vn 1.000000 0.000000 0.000000
vn 1.000000 0.000000 0.000000
vn 1.000000 0.000000 0.000000
vn 1.000000 0.000000 0.000000
vn 0.000000 0.000000 1.000000
vn 0.000000 0.000000 1.000000
vn 0.000000 0.000000 -1.000000
vn 0.000000 0.000000 -1.000000
vn 0.000000 0.000000 -1.000000
vn 0.000000 0.000000 -1.000000
vn 0.000000 0.000000 1.000000
vn 0.000000 0.000000 1.000000
vn 0.000000 0.000000 1.000000
vn 0.000000 0.000000 1.000000
vn -0.000001 -1.000000 -0.000000
vn -0.000001 -1.000000 -0.000000
vn -0.000001 -1.000000 -0.000000
vn -0.000001 -1.000000 -0.000000
s 1
g DoorwayDouble_LP
usemtl initialShadingGroup
f 16/49/1 13/50/2 7/51/3 8/52/4
s 2
f 1/89/5 2/90/6 24/91/7 17/92/8
s 3
f 13/1/9 19/2/10 20/3/11 7/4/12
s 4
f 20/95/13 21/96/14 8/97/15 7/98/16
s off
f 14/57/17 15/58/18 6/59/19 5/60/20
s 5
f 21/13/21 22/14/22 16/15/23 8/16/24
s 3
f 1/9/25 17/10/26 18/5/27 10/6/28
s off
f 4/61/29 12/62/30 9/63/31 3/64/32
s 5
f 2/21/33 11/19/34 23/20/35 24/22/36
s 1
f 2/55/37 1/56/38 10/53/39 11/54/40
s 3
f 18/5/27 19/2/10 13/1/9 10/6/28
s 5
f 11/19/34 16/15/23 22/14/22 23/20/35
s 1
f 10/53/39 13/50/2 16/49/1 11/54/40
s 3
f 18/5/27 17/10/26 3/11/41 9/12/42
f 20/3/11 19/2/10 14/7/43 5/8/44
s 4
f 5/99/45 6/100/46 21/96/14 20/95/13
s 5
f 15/17/47 22/14/22 21/13/21 6/18/48
f 24/22/36 23/20/35 12/23/49 4/24/50
s 2
f 17/92/8 24/91/7 4/93/51 3/94/52
s off
f 18/101/53 9/102/54 12/103/55 23/104/56
f 22/105/57 15/106/58 14/107/59 19/108/60
f 19/65/61 18/66/62 23/67/63 22/68/64
s 7
f 25/109/65 26/110/66 48/111/67 41/112/68
s 8
f 27/69/69 28/70/70 40/71/71 37/72/72
s 9
f 44/115/73 45/116/74 32/117/75 31/118/76
s off
f 38/77/77 39/78/78 26/79/79 25/80/80
s 10
f 26/25/81 39/26/82 47/27/83 48/28/84
s 11
f 41/37/85 42/38/86 38/39/87 25/40/88
f 31/47/89 33/48/90 43/44/91 44/45/92
s off
f 31/81/93 32/82/94 36/83/95 33/84/96
s 10
f 45/33/97 46/32/98 36/35/99 32/36/100
s 8
f 34/73/101 35/74/102 30/75/103 29/76/104
f 34/73/101 37/72/72 40/71/71 35/74/102
s 11
f 37/41/105 42/38/86 41/37/85 27/42/106
f 42/38/86 37/41/105 34/43/107 43/44/91
f 44/45/92 43/44/91 34/43/107 29/46/108
s 9
f 29/119/109 30/120/110 45/116/74 44/115/73
s 10
f 35/31/111 46/32/98 45/33/97 30/34/112
f 35/31/111 40/29/113 47/27/83 46/32/98
f 48/28/84 47/27/83 40/29/113 28/30/114
s 7
f 41/112/68 48/111/67 28/113/115 27/114/116
s off
f 47/121/117 39/122/118 38/123/119 42/124/120
f 33/125/121 36/126/122 46/127/123 43/128/124
f 47/85/125 42/86/126 43/87/127 46/88/128
