# This file uses centimeters as units for non-parametric coordinates.

mtllib DoorNoLight_LP.mtl
g default
v -0.027916 0.000000 -2.897090
v -0.027916 2.624037 -2.897090
v 0.027916 2.624035 -2.897090
v 0.027916 0.000000 -2.897090
v -0.027917 0.000000 -2.000000
v -0.027917 2.624037 -2.000000
v 0.027916 0.000000 -2.000000
v 0.027916 2.624035 -2.000000
v -0.095036 1.296948 -2.806709
v -0.095036 1.300846 -2.812542
v -0.095036 1.306679 -2.816440
v -0.095036 1.313561 -2.817809
v -0.095036 1.320442 -2.816440
v -0.095036 1.326276 -2.812542
v -0.095036 1.330174 -2.806709
v -0.095036 1.331543 -2.799827
v -0.095036 1.330174 -2.792946
v -0.095036 1.326276 -2.787112
v -0.095036 1.320442 -2.783214
v -0.095036 1.313561 -2.781846
v -0.095036 1.306679 -2.783214
v -0.095036 1.300846 -2.787112
v -0.095036 1.296948 -2.792946
v -0.095036 1.295579 -2.799827
v 0.095036 1.296948 -2.806709
v 0.095036 1.300846 -2.812542
v 0.095036 1.306679 -2.816440
v 0.095036 1.313561 -2.817809
v 0.095036 1.320442 -2.816440
v 0.095036 1.326276 -2.812542
v 0.095036 1.330174 -2.806709
v 0.095036 1.331543 -2.799827
v 0.095036 1.330174 -2.792946
v 0.095036 1.326276 -2.787112
v 0.095036 1.320442 -2.783214
v 0.095036 1.313561 -2.781846
v 0.095036 1.306679 -2.783214
v 0.095036 1.300846 -2.787112
v 0.095036 1.296948 -2.792946
v 0.095036 1.295579 -2.799827
v -0.095036 1.313561 -2.799827
v 0.095036 1.313561 -2.799827
v -0.078717 1.296948 -2.806709
v -0.078717 1.295579 -2.799827
v -0.078717 1.296948 -2.792946
v -0.078717 1.300846 -2.787112
v -0.078717 1.306679 -2.783214
v -0.078717 1.313561 -2.781846
v -0.078717 1.320442 -2.783214
v -0.078717 1.326276 -2.787112
v -0.078717 1.330174 -2.792946
v -0.078717 1.331543 -2.799827
v -0.078717 1.330174 -2.806709
v -0.078717 1.326276 -2.812542
v -0.078717 1.320442 -2.816440
v -0.078717 1.313561 -2.817809
v -0.078717 1.306679 -2.816440
v -0.078717 1.300846 -2.812542
v 0.078717 1.296948 -2.806709
v 0.078717 1.295579 -2.799827
v 0.078717 1.296948 -2.792946
v 0.078717 1.300846 -2.787112
v 0.078717 1.306679 -2.783214
v 0.078717 1.313561 -2.781846
v 0.078717 1.320442 -2.783214
v 0.078717 1.326276 -2.787112
v 0.078717 1.330174 -2.792946
v 0.078717 1.331543 -2.799827
v 0.078717 1.330174 -2.806709
v 0.078717 1.326276 -2.812542
v 0.078717 1.320442 -2.816440
v 0.078717 1.313561 -2.817809
v 0.078717 1.306679 -2.816440
v 0.078717 1.300846 -2.812542
v -0.095036 1.330174 -2.691631
v -0.095036 1.326276 -2.685798
v -0.078717 1.326276 -2.685798
v -0.078717 1.330174 -2.691631
v -0.095036 1.320442 -2.681900
v -0.078717 1.320442 -2.681900
v -0.095036 1.313561 -2.680531
v -0.078717 1.313561 -2.680531
v -0.095036 1.306679 -2.681900
v -0.078717 1.306679 -2.681900
v -0.095036 1.300846 -2.685798
v -0.078717 1.300846 -2.685798
v -0.095036 1.296948 -2.691631
v -0.078717 1.296948 -2.691631
v 0.078717 1.296948 -2.691631
v 0.078717 1.300846 -2.685798
v 0.095036 1.296948 -2.691631
v 0.095036 1.300846 -2.685798
v 0.078717 1.306679 -2.681900
v 0.095036 1.306679 -2.681900
v 0.078717 1.313561 -2.680531
v 0.095036 1.313561 -2.680531
v 0.078717 1.320442 -2.681900
v 0.095036 1.320442 -2.681900
v 0.078717 1.326276 -2.685798
v 0.095036 1.326276 -2.685798
v 0.078717 1.330174 -2.691631
v 0.095036 1.330174 -2.691631
v -0.035367 1.264637 -2.820092
v -0.035367 1.276116 -2.837272
v -0.035367 1.293296 -2.848751
v -0.035367 1.313561 -2.852782
v -0.035367 1.333826 -2.848751
v -0.035367 1.351006 -2.837272
v -0.035367 1.362485 -2.820092
v -0.035367 1.366516 -2.799827
v -0.035367 1.362485 -2.779562
v -0.035367 1.351006 -2.762383
v -0.035367 1.333826 -2.750903
v -0.035367 1.313561 -2.746872
v -0.035367 1.293296 -2.750903
v -0.035367 1.276116 -2.762383
v -0.035367 1.264637 -2.779562
v -0.035367 1.260606 -2.799827
v 0.035367 1.264637 -2.820092
v 0.035367 1.276116 -2.837272
v 0.035367 1.293296 -2.848751
v 0.035367 1.313561 -2.852782
v 0.035367 1.333826 -2.848751
v 0.035367 1.351006 -2.837272
v 0.035367 1.362485 -2.820092
v 0.035367 1.366516 -2.799827
v 0.035367 1.362485 -2.779562
v 0.035367 1.351006 -2.762383
v 0.035367 1.333826 -2.750903
v 0.035367 1.313561 -2.746872
v 0.035367 1.293296 -2.750903
v 0.035367 1.276116 -2.762383
v 0.035367 1.264637 -2.779562
v 0.035367 1.260606 -2.799827
v -0.035367 1.313561 -2.799827
v 0.035367 1.313561 -2.799827
vt 0.076599 0.775943
vt 0.076599 0.224057
vt 0.265275 0.224057
vt 0.265275 0.775943
vt 0.620680 0.204391
vt 0.620680 0.756277
vt 0.432004 0.756277
vt 0.432004 0.204391
vt 0.906644 0.102221
vt 0.905418 0.101401
vt 0.908092 0.098727
vt 0.908092 0.102509
vt 0.904598 0.100174
vt 0.904310 0.098727
vt 0.909539 0.102221
vt 0.910766 0.101401
vt 0.904598 0.097280
vt 0.905418 0.096053
vt 0.911586 0.100174
vt 0.911874 0.098727
vt 0.904598 0.075971
vt 0.905418 0.074745
vt 0.906644 0.095233
vt 0.908092 0.094945
vt 0.911586 0.097280
vt 0.910766 0.096053
vt 0.906644 0.073925
vt 0.908092 0.073637
vt 0.909539 0.095233
vt 0.910766 0.074745
vt 0.911586 0.075971
vt 0.909539 0.073925
vt 0.889357 0.089318
vt 0.886683 0.086644
vt 0.887910 0.085824
vt 0.889357 0.085536
vt 0.885575 0.089318
vt 0.885863 0.087871
vt 0.890804 0.085824
vt 0.892031 0.086644
vt 0.886683 0.091992
vt 0.885863 0.090765
vt 0.892851 0.087871
vt 0.893139 0.089318
vt 0.889357 0.093100
vt 0.887910 0.092812
vt 0.886683 0.113301
vt 0.885863 0.112074
vt 0.892851 0.090765
vt 0.892031 0.091992
vt 0.890804 0.092812
vt 0.889357 0.114408
vt 0.887910 0.114121
vt 0.892851 0.112074
vt 0.892031 0.113301
vt 0.890804 0.114121
vt 0.873796 0.084845
vt 0.874615 0.083618
vt 0.874615 0.104927
vt 0.873796 0.106153
vt 0.872569 0.085665
vt 0.872569 0.106973
vt 0.871121 0.085953
vt 0.871121 0.107261
vt 0.869674 0.085665
vt 0.869674 0.106973
vt 0.868447 0.084845
vt 0.868447 0.106153
vt 0.867627 0.083618
vt 0.867627 0.104927
vt 0.850710 0.106034
vt 0.849891 0.107261
vt 0.849891 0.085953
vt 0.850710 0.084726
vt 0.851937 0.105215
vt 0.851937 0.083906
vt 0.853385 0.104927
vt 0.853385 0.083618
vt 0.854832 0.105215
vt 0.854832 0.083906
vt 0.856059 0.106034
vt 0.856059 0.084726
vt 0.856879 0.107261
vt 0.856879 0.085953
vt 0.814523 0.102129
vt 0.812109 0.098516
vt 0.822399 0.094254
vt 0.811261 0.094254
vt 0.818136 0.104544
vt 0.812109 0.089992
vt 0.822399 0.105391
vt 0.814523 0.086379
vt 0.826661 0.104544
vt 0.818136 0.083964
vt 0.830274 0.102129
vt 0.822399 0.083117
vt 0.832688 0.098516
vt 0.826661 0.083964
vt 0.833536 0.094254
vt 0.830274 0.086379
vt 0.832688 0.089992
vt 0.778163 0.352022
vt 0.786038 0.344147
vt 0.788452 0.347760
vt 0.789300 0.352022
vt 0.778163 0.340884
vt 0.782425 0.341732
vt 0.788452 0.356284
vt 0.786038 0.359898
vt 0.770287 0.344147
vt 0.773900 0.341732
vt 0.782425 0.362312
vt 0.778163 0.363160
vt 0.767025 0.352022
vt 0.767873 0.347760
vt 0.773900 0.362312
vt 0.770287 0.359898
vt 0.767873 0.356284
vt 0.727921 0.071187
vt 0.739663 0.071187
vt 0.739663 0.259862
vt 0.727921 0.259862
vt 0.766456 0.259863
vt 0.754713 0.259863
vt 0.754713 0.071187
vt 0.766456 0.071187
vt 0.880931 0.058309
vt 0.879363 0.058309
vt 0.879363 0.054589
vt 0.880931 0.054589
vt 0.877793 0.058309
vt 0.877793 0.054589
vt 0.880931 0.018693
vt 0.879363 0.018693
vt 0.882262 0.058309
vt 0.882262 0.054589
vt 0.854693 0.058309
vt 0.854693 0.054589
vt 0.877793 0.018693
vt 0.882262 0.018693
vt 0.879363 0.014972
vt 0.880931 0.014972
vt 0.883150 0.058309
vt 0.883150 0.054589
vt 0.853363 0.058309
vt 0.853363 0.054589
vt 0.876463 0.054589
vt 0.876463 0.018693
vt 0.877793 0.014972
vt 0.883150 0.018693
vt 0.882262 0.014972
vt 0.852475 0.058309
vt 0.852475 0.054589
vt 0.875575 0.054589
vt 0.875575 0.018693
vt 0.854693 0.018693
vt 0.854693 0.014972
vt 0.883150 0.014972
vt 0.853363 0.018693
vt 0.853363 0.014972
vt 0.852475 0.018693
vt 0.852475 0.014972
vt 0.791743 0.058309
vt 0.790174 0.058309
vt 0.790174 0.054588
vt 0.791743 0.054588
vt 0.788605 0.058309
vt 0.788605 0.054588
vt 0.791743 0.018693
vt 0.790174 0.018693
vt 0.814843 0.054588
vt 0.814843 0.058309
vt 0.787275 0.058309
vt 0.787275 0.054588
vt 0.788605 0.018693
vt 0.793073 0.018693
vt 0.793073 0.054588
vt 0.790174 0.014972
vt 0.791743 0.014972
vt 0.816174 0.058309
vt 0.816174 0.054588
vt 0.786387 0.058309
vt 0.786387 0.054588
vt 0.787275 0.018693
vt 0.788605 0.014972
vt 0.793962 0.018693
vt 0.793962 0.054588
vt 0.814843 0.014972
vt 0.814843 0.018693
vt 0.817062 0.058309
vt 0.817062 0.054588
vt 0.786387 0.018693
vt 0.787275 0.014972
vt 0.816174 0.018693
vt 0.816174 0.014972
vt 0.786387 0.014972
vt 0.817062 0.018693
vt 0.817062 0.014972
vt 0.700555 0.984969
vt 0.700555 0.980171
vt 0.717301 0.980171
vt 0.717301 0.984969
vt 0.700555 0.975373
vt 0.717301 0.975373
vt 0.700555 0.989036
vt 0.717301 0.989036
vt 0.700555 0.971306
vt 0.717301 0.971306
vt 0.700555 0.991753
vt 0.717301 0.991753
vt 0.700555 0.968589
vt 0.717301 0.968589
vt 0.731966 0.355350
vt 0.731966 0.350553
vt 0.748712 0.350553
vt 0.748712 0.355350
vt 0.731966 0.345755
vt 0.748712 0.345755
vt 0.731966 0.359417
vt 0.748712 0.359417
vt 0.731966 0.341688
vt 0.748712 0.341688
vt 0.731966 0.362135
vt 0.748712 0.362135
vt 0.731966 0.338970
vt 0.748712 0.338970
vt 0.006132 0.756278
vt 0.006132 0.204390
vt 0.017875 0.204390
vt 0.017875 0.756277
vt 0.701128 0.204391
vt 0.712871 0.204391
vt 0.712871 0.756277
vt 0.701128 0.756277
vt 0.836540 0.056824
vt 0.835079 0.056824
vt 0.835079 0.053358
vt 0.836540 0.053358
vt 0.833617 0.056824
vt 0.833617 0.053358
vt 0.836540 0.019924
vt 0.835079 0.019924
vt 0.833617 0.019924
vt 0.835079 0.016458
vt 0.836540 0.016458
vt 0.833617 0.016458
vt 0.648564 0.967040
vt 0.647103 0.967040
vt 0.647103 0.963577
vt 0.648564 0.963577
vt 0.645643 0.967040
vt 0.645643 0.963577
vt 0.901167 0.013974
vt 0.901167 0.047408
vt 0.899705 0.047408
vt 0.899705 0.013974
vt 0.902628 0.013974
vt 0.902628 0.047408
vt 0.636463 0.967042
vt 0.635001 0.967042
vt 0.635001 0.963575
vt 0.636463 0.963575
vt 0.637925 0.967042
vt 0.637925 0.963575
vt 0.687326 0.982738
vt 0.683023 0.982738
vt 0.683023 0.967717
vt 0.687326 0.967717
vt 0.678719 0.982738
vt 0.678719 0.967717
vt 0.666927 0.982739
vt 0.662623 0.982739
vt 0.662623 0.967717
vt 0.666927 0.967717
vt 0.658320 0.982739
vt 0.658320 0.967717
vn 0.000000 0.000000 1.000000
vn 0.000000 0.000000 1.000000
vn 0.000000 0.000000 1.000000
vn 0.000000 0.000000 1.000000
vn -1.000000 0.000000 -0.000001
vn -1.000000 0.000000 -0.000001
vn -1.000000 0.000000 -0.000001
vn -1.000000 0.000000 -0.000001
vn 0.000000 -1.000000 0.000000
vn 0.000000 -1.000000 0.000000
vn 0.000000 -1.000000 0.000000
vn 0.000000 -1.000000 0.000000
vn 1.000000 0.000000 0.000001
vn 1.000000 0.000000 0.000001
vn 1.000000 0.000000 0.000001
vn 1.000000 0.000000 0.000001
vn 0.000026 1.000000 0.000000
vn 0.000026 1.000000 0.000000
vn 0.000026 1.000000 0.000000
vn 0.000026 1.000000 0.000000
vn 0.000000 0.000000 -1.000000
vn 0.000000 0.000000 -1.000000
vn 0.000000 0.000000 -1.000000
vn 0.000000 0.000000 -1.000000
vn -0.000001 -0.923877 -0.382690
vn 0.000001 -0.707107 -0.707107
vn 0.000000 -0.707103 -0.707110
vn -0.000000 -0.923878 -0.382686
vn 0.000000 -0.382695 -0.923875
vn 0.000000 -0.382697 -0.923874
vn 0.000000 0.000000 -1.000000
vn 0.000000 -0.000000 -1.000000
vn 0.000000 0.382688 -0.923878
vn 0.000000 0.382687 -0.923878
vn 0.000004 0.707102 -0.707112
vn 0.000000 0.707103 -0.707111
vn 0.000004 0.923881 -0.382679
vn -0.000000 0.923880 -0.382682
vn 0.000000 1.000000 0.000000
vn 0.000000 1.000000 0.000000
vn 0.000000 0.999920 0.012650
vn 0.000000 0.975396 0.220459
vn 0.000000 0.831474 0.555564
vn 0.000000 0.707094 0.707120
vn 0.000000 0.707094 0.707120
vn 0.000000 0.831474 0.555564
vn 0.000000 0.382677 0.923882
vn 0.000000 0.382677 0.923882
vn 0.000000 0.000000 1.000000
vn 0.000000 0.000000 1.000000
vn 0.000000 -0.382680 0.923881
vn 0.000000 -0.382680 0.923881
vn -0.000004 -0.707098 0.707115
vn -0.000004 -0.707098 0.707115
vn -0.000008 -0.831466 0.555575
vn -0.000008 -0.831466 0.555575
vn -0.000007 -0.999920 0.012651
vn -0.000004 -1.000000 0.000000
vn -0.000000 -1.000000 0.000000
vn -0.000003 -0.975395 0.220463
vn -1.000000 -0.000000 0.000000
vn -1.000000 0.000000 0.000000
vn -1.000000 0.000000 0.000000
vn -1.000000 -0.000000 0.000000
vn -1.000000 0.000000 0.000000
vn -1.000000 0.000000 0.000000
vn -1.000000 0.000000 0.000000
vn -1.000000 0.000000 0.000000
vn -1.000000 0.000000 0.000000
vn -1.000000 -0.000000 0.000000
vn -1.000000 -0.000000 0.000000
vn -1.000000 0.000000 0.000000
vn -1.000000 0.000000 0.000000
vn -1.000000 0.000000 0.000000
vn -1.000000 0.000000 0.000000
vn -1.000000 0.000000 0.000000
vn -1.000000 0.000000 0.000000
vn 1.000000 -0.000000 -0.000000
vn 1.000000 -0.000000 -0.000000
vn 1.000000 -0.000001 0.000000
vn 1.000000 -0.000000 0.000000
vn 1.000000 0.000000 0.000000
vn 1.000000 0.000000 0.000000
vn 1.000000 0.000000 0.000000
vn 1.000000 0.000000 0.000000
vn 1.000000 0.000000 0.000000
vn 1.000000 -0.000000 0.000000
vn 1.000000 -0.000000 0.000000
vn 1.000000 0.000000 0.000000
vn 1.000000 0.000000 0.000000
vn 1.000000 0.000000 0.000000
vn 1.000000 0.000000 0.000000
vn 1.000000 0.000000 -0.000000
vn 1.000000 0.000000 -0.000000
vn 0.000000 -1.000000 -0.000000
vn 0.000000 -0.923878 -0.382686
vn 0.000003 -0.975395 0.220463
vn 0.000000 -0.707103 0.707111
vn 0.000000 -0.707103 0.707111
vn 0.000000 -0.382682 0.923880
vn 0.000000 -0.382682 0.923880
vn 0.000000 0.000000 1.000000
vn 0.000000 0.000000 1.000000
vn 0.000000 0.382677 0.923882
vn 0.000000 0.382677 0.923882
vn 0.000000 0.707103 0.707111
vn 0.000000 0.707103 0.707111
vn 0.000000 0.975396 0.220459
vn 0.000000 1.000000 0.000000
vn -0.000000 0.923880 -0.382682
vn -0.000000 0.707103 -0.707111
vn 0.000000 0.382686 -0.923878
vn 0.000000 -0.000000 -1.000000
vn 0.000000 -0.382696 -0.923874
vn -0.000000 -0.707103 -0.707110
vn 0.000001 -0.923877 -0.382690
vn 0.000004 -1.000000 0.000000
vn 0.000007 -0.999920 0.012651
vn 0.000004 -0.707098 0.707115
vn 0.000008 -0.831466 0.555575
vn 0.000008 -0.831466 0.555575
vn 0.000004 -0.707098 0.707115
vn 0.000000 -0.382680 0.923881
vn 0.000000 -0.382680 0.923881
vn 0.000000 0.000000 1.000000
vn 0.000000 0.000000 1.000000
vn 0.000000 0.382677 0.923882
vn 0.000000 0.382677 0.923882
vn 0.000000 0.707094 0.707120
vn 0.000000 0.707094 0.707120
vn 0.000000 0.831474 0.555564
vn 0.000000 0.831474 0.555564
vn 0.000000 0.999920 0.012650
vn 0.000000 1.000000 0.000000
vn 0.000000 0.923883 -0.382676
vn 0.000000 0.707103 -0.707111
vn 0.000000 0.382680 -0.923881
vn 0.000000 0.000000 -1.000000
vn 0.000000 -0.382695 -0.923875
vn -0.000001 -0.707107 -0.707107
vn -1.000000 -0.000001 0.000000
vn -1.000000 0.000000 0.000000
vn 1.000000 0.000000 0.000000
vn 1.000000 0.000000 0.000000
vn 1.000000 0.000000 0.000000
vn 1.000000 0.000000 0.000000
vn 0.000000 1.000000 0.000000
vn 0.000000 1.000000 0.000000
vn -1.000000 0.000000 0.000000
vn 1.000000 0.000000 0.000000
vn 1.000000 0.000000 0.000000
vn -1.000000 0.000000 0.000000
vn 1.000000 0.000000 0.000000
vn 1.000000 0.000000 0.000000
vn -1.000000 -0.000000 0.000000
vn 1.000000 0.000000 0.000000
vn 1.000000 0.000000 0.000000
vn -1.000000 0.000001 0.000000
vn 1.000000 0.000000 0.000000
vn 1.000000 0.000000 0.000000
vn -1.000000 0.000000 0.000000
vn -0.000007 -1.000000 0.000000
vn -0.000007 -1.000000 0.000000
vn 1.000000 0.000000 0.000000
vn 1.000000 0.000000 0.000000
vn -1.000000 0.000000 0.000000
vn -1.000000 0.000000 0.000000
vn -1.000000 0.000000 0.000000
vn -1.000000 0.000000 0.000000
vn 0.000007 -1.000000 0.000000
vn 0.000007 -1.000000 0.000000
vn 1.000000 0.000001 0.000000
vn 1.000000 0.000000 0.000000
vn -1.000000 0.000000 0.000000
vn -1.000000 0.000000 0.000000
vn 1.000000 -0.000000 0.000000
vn -1.000000 0.000000 0.000000
vn -1.000000 0.000000 0.000000
vn 1.000000 0.000000 0.000000
vn -1.000000 0.000000 0.000000
vn -1.000000 0.000000 0.000000
vn 1.000000 0.000000 0.000000
vn -1.000000 0.000000 0.000000
vn -1.000000 0.000000 0.000000
vn 1.000000 -0.000001 0.000000
vn -1.000000 0.000000 0.000000
vn -1.000000 0.000000 0.000000
vn 1.000000 0.000000 0.000000
vn 0.000000 1.000000 0.000000
vn 0.000000 1.000000 0.000000
vn 0.000000 -0.923880 -0.382684
vn 0.000000 -0.707106 -0.707108
vn 0.000000 -0.707106 -0.707108
vn 0.000000 -0.923880 -0.382684
vn 0.000000 -0.382687 -0.923878
vn 0.000000 -0.382687 -0.923878
vn 0.000000 -0.000000 -1.000000
vn 0.000000 -0.000000 -1.000000
vn 0.000000 0.382684 -0.923880
vn 0.000000 0.382684 -0.923880
vn 0.000000 0.707106 -0.707108
vn 0.000000 0.707106 -0.707108
vn 0.000000 0.923880 -0.382684
vn 0.000000 0.923880 -0.382684
vn 0.000000 1.000000 -0.000000
vn 0.000000 1.000000 -0.000000
vn 0.000000 0.923880 0.382683
vn 0.000000 0.923880 0.382683
vn 0.000000 0.707109 0.707105
vn 0.000000 0.707109 0.707105
vn 0.000000 0.382682 0.923880
vn 0.000000 0.382682 0.923880
vn 0.000000 0.000000 1.000000
vn 0.000000 0.000000 1.000000
vn 0.000000 -0.382682 0.923880
vn 0.000000 -0.382682 0.923880
vn 0.000000 -0.707109 0.707105
vn 0.000000 -0.707109 0.707105
vn 0.000000 -0.923879 0.382686
vn 0.000000 -0.923879 0.382686
vn 0.000000 -1.000000 -0.000000
vn 0.000000 -1.000000 -0.000000
vn -1.000000 -0.000000 0.000000
vn -1.000000 -0.000000 0.000000
vn -1.000000 -0.000000 0.000000
vn -1.000000 -0.000000 0.000000
vn -1.000000 0.000000 0.000000
vn -1.000000 0.000000 0.000000
vn -1.000000 0.000000 0.000000
vn -1.000000 0.000000 0.000000
vn -1.000000 0.000000 0.000000
vn -1.000000 0.000000 0.000000
vn -1.000000 0.000000 0.000000
vn -1.000000 0.000000 0.000000
vn -1.000000 0.000000 0.000000
vn -1.000000 0.000000 0.000000
vn -1.000000 0.000000 0.000000
vn -1.000000 0.000000 0.000000
vn -1.000000 0.000000 0.000000
vn 1.000000 -0.000000 0.000000
vn 1.000000 -0.000000 0.000000
vn 1.000000 -0.000000 0.000000
vn 1.000000 0.000000 0.000000
vn 1.000000 0.000000 0.000000
vn 1.000000 0.000000 0.000000
vn 1.000000 0.000000 0.000000
vn 1.000000 0.000000 0.000000
vn 1.000000 0.000000 0.000000
vn 1.000000 0.000000 0.000000
vn 1.000000 0.000000 0.000000
vn 1.000000 0.000000 0.000000
vn 1.000000 0.000000 0.000000
vn 1.000000 0.000000 0.000000
vn 1.000000 0.000000 0.000000
vn 1.000000 -0.000000 0.000000
vn 1.000000 -0.000000 0.000000
s off
g DoorNoLight_LP
usemtl initialShadingGroup
f 6/227/1 5/228/2 7/229/3 8/230/4
f 2/1/5 1/2/6 5/3/7 6/4/8
f 1/119/9 4/120/10 7/121/11 5/122/12
f 4/5/13 3/6/14 8/7/15 7/8/16
f 3/123/17 2/124/18 6/125/19 8/126/20
f 2/231/21 3/232/22 4/233/23 1/234/24
s 1
f 9/167/25 10/173/26 58/174/27 43/168/28
f 10/173/26 11/182/29 57/183/30 58/174/27
f 11/235/29 12/236/31 56/237/32 57/238/30
f 12/236/31 13/239/33 55/240/34 56/237/32
f 13/143/33 14/135/35 54/136/36 55/144/34
f 14/135/35 15/127/37 53/130/38 54/136/36
f 15/127/37 16/128/39 52/129/40 53/130/38
f 16/128/39 17/131/41 51/132/42 52/129/40
s 2
f 75/137/43 76/145/44 77/146/45 78/138/46
f 76/145/44 79/152/47 80/153/48 77/146/45
f 79/247/47 81/248/49 82/249/50 80/250/48
f 81/248/49 83/251/51 84/252/52 82/249/50
f 83/190/51 85/180/53 86/181/54 84/191/52
f 85/180/53 87/172/55 88/171/56 86/181/54
s 1
f 23/163/57 24/164/58 44/165/59 45/166/60
f 24/164/58 9/167/25 43/168/28 44/165/59
s 3
f 11/9/61 10/10/62 41/11/63 12/12/64
f 13/15/65 12/12/64 41/11/63 14/16/66
f 15/19/67 14/16/66 41/11/63 16/20/68
f 17/25/69 16/20/68 41/11/63 18/26/70
f 19/29/71 18/26/70 41/11/63 20/24/72
f 21/23/73 20/24/72 41/11/63 22/18/74
f 23/17/75 22/18/74 41/11/63 24/14/76
f 9/13/77 24/14/76 41/11/63 10/10/62
s 4
f 42/33/78 26/34/79 27/35/80 28/36/81
f 42/33/78 28/36/81 29/39/82 30/40/83
f 42/33/78 30/40/83 31/43/84 32/44/85
f 42/33/78 32/44/85 33/49/86 34/50/87
f 42/33/78 34/50/87 35/51/88 36/45/89
f 42/33/78 36/45/89 37/46/90 38/41/91
f 42/33/78 38/41/91 39/42/92 40/37/93
f 42/33/78 40/37/93 25/38/94 26/34/79
s 1
f 60/170/95 44/165/59 43/168/28 59/175/96
f 61/169/97 45/166/60 44/165/59 60/170/95
f 62/176/98 46/177/99 45/166/60 61/169/97
f 63/186/100 47/187/101 46/177/99 62/176/98
f 64/253/102 48/254/103 47/255/101 63/256/100
f 65/257/104 49/258/105 48/254/103 64/253/102
f 66/148/106 50/147/107 49/154/105 65/155/104
f 67/139/108 51/132/42 50/147/107 66/148/106
f 68/134/109 52/129/40 51/132/42 67/139/108
f 69/133/110 53/130/38 52/129/40 68/134/109
f 70/140/111 54/136/36 53/130/38 69/133/110
f 71/150/112 55/144/34 54/136/36 70/140/111
f 72/242/113 56/237/32 55/240/34 71/243/112
f 73/241/114 57/238/30 56/237/32 72/242/113
f 74/184/115 58/174/27 57/183/30 73/192/114
f 59/175/96 43/168/28 58/174/27 74/184/115
f 60/170/95 59/175/96 25/185/116 40/178/117
f 61/169/97 60/170/95 40/178/117 39/179/118
s 5
f 90/194/119 89/189/120 91/188/121 92/195/122
f 93/197/123 90/194/119 92/195/122 94/198/124
f 95/259/125 93/260/123 94/261/124 96/262/126
f 97/263/127 95/259/125 96/262/126 98/264/128
f 99/159/129 97/161/127 98/162/128 100/160/130
f 101/156/131 99/159/129 100/160/130 102/157/132
s 1
f 68/134/109 67/139/108 33/149/133 32/141/134
f 69/133/110 68/134/109 32/141/134 31/142/135
f 70/140/111 69/133/110 31/142/135 30/151/136
f 71/150/112 70/140/111 30/151/136 29/158/137
f 72/242/113 71/243/112 29/246/137 28/244/138
f 73/241/114 72/242/113 28/244/138 27/245/139
f 74/184/115 73/192/114 27/196/139 26/193/140
f 59/175/96 74/184/115 26/193/140 25/185/116
s 3
f 17/25/69 18/26/70 76/30/141 75/31/142
s 6
f 50/57/143 51/58/144 78/59/145 77/60/146
s 1
f 51/132/42 17/131/41 75/137/147 78/138/148
s 3
f 18/26/70 19/29/71 79/32/149 76/30/141
s 6
f 49/61/150 50/57/143 77/60/146 80/62/151
s 3
f 19/29/71 20/24/72 81/28/152 79/32/149
s 6
f 48/63/153 49/61/150 80/62/151 82/64/154
s 3
f 20/24/72 21/23/73 83/27/155 81/28/152
s 6
f 47/65/156 48/63/153 82/64/154 84/66/157
s 3
f 21/23/73 22/18/74 85/22/158 83/27/155
s 6
f 46/67/159 47/65/156 84/66/157 86/68/160
s 3
f 22/18/74 23/17/75 87/21/161 85/22/158
s 1
f 23/163/57 45/166/60 88/171/162 87/172/163
s 6
f 45/69/164 46/67/159 86/68/160 88/70/165
s 7
f 62/71/166 61/72/167 89/73/168 90/74/169
s 1
f 61/169/97 39/179/118 91/188/170 89/189/171
s 4
f 39/42/92 38/41/91 92/47/172 91/48/173
s 7
f 63/75/174 62/71/166 90/74/169 93/76/175
s 4
f 38/41/91 37/46/90 94/53/176 92/47/172
s 7
f 64/77/177 63/75/174 93/76/175 95/78/178
s 4
f 37/46/90 36/45/89 96/52/179 94/53/176
s 7
f 65/79/180 64/77/177 95/78/178 97/80/181
s 4
f 36/45/89 35/51/88 98/56/182 96/52/179
s 7
f 66/81/183 65/79/180 97/80/181 99/82/184
s 4
f 35/51/88 34/50/87 100/55/185 98/56/182
s 7
f 67/83/186 66/81/183 99/82/184 101/84/187
s 4
f 34/50/87 33/49/86 102/54/188 100/55/185
s 1
f 33/149/133 67/139/108 101/156/189 102/157/190
s 8
f 103/217/191 104/221/192 120/222/193 119/218/194
f 104/221/192 105/225/195 121/226/196 120/222/193
f 105/265/195 106/266/197 122/267/198 121/268/196
f 106/266/197 107/269/199 123/270/200 122/267/198
f 107/209/199 108/205/201 124/206/202 123/210/200
f 108/205/201 109/199/203 125/202/204 124/206/202
f 109/199/203 110/200/205 126/201/206 125/202/204
f 110/200/205 111/203/207 127/204/208 126/201/206
f 111/203/207 112/207/209 128/208/210 127/204/208
f 112/207/209 113/211/211 129/212/212 128/208/210
f 113/271/211 114/272/213 130/273/214 129/274/212
f 114/272/213 115/275/215 131/276/216 130/273/214
f 115/223/215 116/219/217 132/220/218 131/224/216
f 116/219/217 117/213/219 133/216/220 132/220/218
f 117/213/219 118/214/221 134/215/222 133/216/220
f 118/214/221 103/217/191 119/218/194 134/215/222
s 9
f 104/85/223 103/86/224 135/87/225
f 105/89/226 104/85/223 135/87/225
f 106/91/227 105/89/226 135/87/225
f 107/93/228 106/91/227 135/87/225
f 108/95/229 107/93/228 135/87/225
f 109/97/230 108/95/229 135/87/225
f 110/99/231 109/97/230 135/87/225
f 111/101/232 110/99/231 135/87/225
f 112/100/233 111/101/232 135/87/225
f 113/98/234 112/100/233 135/87/225
f 114/96/235 113/98/234 135/87/225
f 115/94/236 114/96/235 135/87/225
f 116/92/237 115/94/236 135/87/225
f 117/90/238 116/92/237 135/87/225
f 118/88/239 117/90/238 135/87/225
f 103/86/224 118/88/239 135/87/225
s 10
f 136/102/240 120/103/241 121/104/242 122/105/243
f 136/102/240 122/105/243 123/108/244 124/109/245
f 136/102/240 124/109/245 125/112/246 126/113/247
f 136/102/240 126/113/247 127/116/248 128/117/249
f 136/102/240 128/117/249 129/118/250 130/114/251
f 136/102/240 130/114/251 131/115/252 132/110/253
f 136/102/240 132/110/253 133/111/254 134/106/255
f 136/102/240 134/106/255 119/107/256 120/103/241
