# This file uses centimeters as units for non-parametric coordinates.

mtllib OutsideDoorsLrg_LP.mtl
g default
v -0.075000 3.000000 -3.000000
v 0.075000 3.000000 -3.000000
v -0.075000 0.000000 -3.000000
v 0.075000 0.000000 -3.000000
v -0.075000 0.000000 3.000000
v 0.075000 0.000000 3.000000
v -0.075000 3.000000 3.000000
v 0.075000 3.000000 3.000000
v -0.075000 0.000000 -2.751178
v -0.075000 3.000000 -2.751178
v 0.075000 3.000000 -2.751178
v 0.075000 0.000000 -2.751178
v -0.075000 3.000000 2.751178
v -0.075000 0.000000 2.751178
v 0.075000 0.000000 2.751178
v 0.075000 3.000000 2.751178
v -0.075000 2.700000 -3.000000
v -0.075000 2.700000 -2.751178
v -0.075000 2.700000 2.751178
v -0.075000 2.700000 3.000000
v 0.075000 2.700000 3.000000
v 0.075000 2.700000 2.751178
v 0.075000 2.700000 -2.751178
v 0.075000 2.700000 -3.000000
v -0.033877 0.000000 -2.751178
v -0.033877 2.700000 -2.751178
v 0.019378 0.000000 -2.751178
v 0.019378 2.700000 -2.751178
v 0.019378 0.000000 2.751178
v 0.019378 2.700000 2.751178
v -0.033877 0.000000 2.751178
v -0.033877 2.700000 2.751178
v -0.020565 0.023114 0.000031
v -0.033877 -0.000000 -0.052257
v -0.033877 2.700000 -0.052257
v -0.020565 2.676886 0.000031
v 0.006065 0.023114 0.000031
v 0.019378 -0.000000 -0.052257
v 0.006065 2.676886 0.000031
v 0.019378 2.700000 -0.052257
v 0.019378 -0.000000 0.052255
v 0.019378 2.700000 0.052255
v -0.033877 -0.000000 0.052255
v -0.033877 2.700000 0.052255
v -0.020565 1.350000 0.000031
v 0.006065 1.350000 0.000031
v 0.006065 1.482689 0.000031
v -0.020565 1.482689 0.000031
v -0.020565 1.217311 0.000031
v 0.006065 1.217311 0.000031
v -0.033877 1.159218 -2.751178
v -0.033877 1.159218 -0.052257
v -0.033877 1.540075 -0.052257
v -0.033877 1.540075 -2.751178
v -0.033877 1.159218 2.751178
v -0.033877 1.159218 0.052255
v -0.033877 1.540075 2.751178
v -0.033877 1.540075 0.052255
v -0.053570 1.256174 -2.751178
v -0.053570 1.256174 -0.052257
v -0.053570 1.443119 -0.052257
v -0.053570 1.443119 -2.751178
v -0.053570 1.256174 2.751178
v -0.053570 1.256174 0.052255
v -0.053570 1.443119 2.751178
v -0.053570 1.443119 0.052255
vt 0.965875 0.689046
vt 0.965875 0.663131
vt 0.987369 0.663131
vt 0.987369 0.689046
vt 0.490563 0.663131
vt 0.490563 0.689046
vt 0.965875 0.429896
vt 0.987369 0.429896
vt 0.469069 0.689046
vt 0.469069 0.663131
vt 0.469069 0.429896
vt 0.490563 0.429896
vt 0.460082 0.950007
vt 0.481576 0.950007
vt 0.481576 0.975922
vt 0.460082 0.975922
vt 0.460082 0.716772
vt 0.481576 0.716772
vt 0.956888 0.975922
vt 0.956888 0.950007
vt 0.978382 0.975922
vt 0.978382 0.950007
vt 0.956888 0.716772
vt 0.978382 0.716772
vt 0.073751 0.007181
vt 0.075748 0.002664
vt 0.178907 0.002664
vt 0.190369 0.002664
vt 0.201831 0.002664
vt 0.304990 0.002664
vt 0.306987 0.007181
vt 0.206788 0.007181
vt 0.173889 0.007181
vt 0.306987 0.240323
vt 0.206788 0.240323
vt 0.073751 0.240323
vt 0.173889 0.240323
vt 0.198413 0.240323
vt 0.198413 0.007181
vt 0.182264 0.007181
vt 0.182264 0.240323
vt 0.076384 0.497196
vt 0.074387 0.492679
vt 0.307623 0.492679
vt 0.305626 0.497196
vt 0.202467 0.497196
vt 0.191005 0.497196
vt 0.179543 0.497196
vt 0.074387 0.259537
vt 0.307623 0.259537
vt 0.125138 0.528217
vt 0.127135 0.523706
vt 0.230294 0.523706
vt 0.241756 0.523706
vt 0.253218 0.523706
vt 0.356377 0.523706
vt 0.358373 0.528217
vt 0.125138 0.761359
vt 0.358373 0.761359
vt 0.077677 0.628861
vt 0.077677 0.525702
vt 0.082188 0.523706
vt 0.082188 0.756941
vt 0.077677 0.754944
vt 0.077677 0.651785
vt 0.077677 0.640323
vt 0.001704 0.873285
vt 0.234846 0.873285
vt 0.234846 0.889434
vt 0.001704 0.889434
vt 0.001704 0.864910
vt 0.234846 0.864910
vt 0.234846 0.897810
vt 0.001704 0.897810
vt 0.001704 0.764773
vt 0.234846 0.764773
vt 0.234846 0.998008
vt 0.001704 0.998008
vt 0.240228 0.998008
vt 0.240228 0.764773
vt 0.240228 0.864910
vt 0.240228 0.897810
vt 0.246895 0.764773
vt 0.246895 0.998008
vt 0.246895 0.897810
vt 0.246895 0.864910
vt 0.253562 0.998008
vt 0.253562 0.764773
vt 0.253562 0.864910
vt 0.253562 0.897810
vt 0.014661 0.023486
vt 0.001704 0.023486
vt 0.001704 0.001992
vt 0.014661 0.001992
vt 0.001704 0.498798
vt 0.014661 0.498798
vt 0.014661 0.520292
vt 0.001704 0.520292
vt 0.581551 0.001992
vt 0.581551 0.023486
vt 0.568594 0.023486
vt 0.568594 0.001992
vt 0.576747 0.023486
vt 0.572146 0.023486
vt 0.576747 0.256628
vt 0.572146 0.256628
vt 0.573296 0.261145
vt 0.575597 0.261145
vt 0.623599 0.261139
vt 0.623599 0.239645
vt 0.636557 0.239645
vt 0.636557 0.261139
vt 0.627152 0.239645
vt 0.631752 0.239645
vt 0.627152 0.006503
vt 0.631752 0.006503
vt 0.630602 0.001992
vt 0.628302 0.001992
vt 0.550259 0.477304
vt 0.550259 0.001992
vt 0.563216 0.001992
vt 0.563216 0.477304
vt 0.363621 0.523706
vt 0.376578 0.523706
vt 0.371773 0.523706
vt 0.367173 0.523706
vt 0.371773 0.756848
vt 0.367173 0.756848
vt 0.370623 0.761359
vt 0.368323 0.761359
vt 0.645487 0.006509
vt 0.646637 0.001992
vt 0.648937 0.001992
vt 0.650087 0.006509
vt 0.650087 0.239651
vt 0.645487 0.239651
vt 0.654892 0.239651
vt 0.641935 0.239651
vt 0.586929 0.001992
vt 0.599887 0.001992
vt 0.599887 0.027907
vt 0.586929 0.027907
vt 0.599887 0.261142
vt 0.586929 0.261142
vt 0.605264 0.235227
vt 0.618222 0.235227
vt 0.618222 0.261142
vt 0.605264 0.261142
vt 0.605264 0.001992
vt 0.618222 0.001992
vt 0.116339 0.523706
vt 0.119891 0.523706
vt 0.119891 0.756941
vt 0.116339 0.756941
vt 0.106287 0.523706
vt 0.111092 0.523706
vt 0.111092 0.756941
vt 0.106287 0.756941
vt 0.101040 0.756941
vt 0.096235 0.756941
vt 0.096235 0.523706
vt 0.101040 0.523706
vt 0.090987 0.756941
vt 0.087435 0.756941
vt 0.087435 0.523706
vt 0.090987 0.523706
vt 0.260230 0.994015
vt 0.260230 0.890856
vt 0.260230 0.879394
vt 0.260230 0.867932
vt 0.260230 0.764773
vt 0.262530 0.764773
vt 0.262530 0.867932
vt 0.262530 0.879394
vt 0.262530 0.890856
vt 0.262530 0.994015
vt 0.268564 0.890856
vt 0.270864 0.890856
vt 0.270864 0.994015
vt 0.268564 0.994015
vt 0.268564 0.879394
vt 0.270864 0.879394
vt 0.268564 0.867932
vt 0.270864 0.867932
vt 0.270864 0.764773
vt 0.268564 0.764773
vt 0.278599 0.764773
vt 0.278599 0.797673
vt 0.276898 0.789297
vt 0.276898 0.773148
vt 0.286933 0.764773
vt 0.286933 0.797673
vt 0.285232 0.789297
vt 0.285232 0.773148
vt 0.295267 0.764773
vt 0.295267 0.797673
vt 0.293566 0.789297
vt 0.293566 0.773148
vt 0.303602 0.764773
vt 0.303602 0.797673
vt 0.301900 0.789297
vt 0.301900 0.773148
vn 0.000000 1.000000 0.000000
vn 0.000000 1.000000 0.000000
vn 0.000000 1.000000 0.000000
vn 0.000000 1.000000 0.000000
vn 0.000000 0.000000 -1.000000
vn 0.000000 0.000000 -1.000000
vn 0.000000 0.000000 -1.000000
vn 0.000000 0.000000 -1.000000
vn -1.000000 0.000000 0.000000
vn -1.000000 0.000000 0.000000
vn -1.000000 0.000000 0.000000
vn -1.000000 0.000000 0.000000
vn 0.000000 0.000000 1.000000
vn 0.000000 0.000000 1.000000
vn 0.000000 0.000000 1.000000
vn 0.000000 0.000000 1.000000
vn 1.000000 0.000000 0.000000
vn 1.000000 0.000000 0.000000
vn 1.000000 0.000000 0.000000
vn 1.000000 0.000000 0.000000
vn -1.000000 0.000000 0.000000
vn -1.000000 0.000000 0.000000
vn -1.000000 0.000000 0.000000
vn -1.000000 0.000000 0.000000
vn 0.000000 -1.000000 0.000000
vn 0.000000 -1.000000 0.000000
vn 0.000000 -1.000000 0.000000
vn 0.000000 -1.000000 0.000000
vn 1.000000 0.000000 0.000000
vn 1.000000 0.000000 0.000000
vn 1.000000 0.000000 0.000000
vn 1.000000 -0.000000 0.000000
vn 0.000000 1.000000 0.000000
vn 0.000000 1.000000 0.000000
vn 0.000000 1.000000 0.000000
vn 0.000000 1.000000 0.000000
vn -1.000000 0.000000 0.000000
vn -1.000000 0.000000 0.000000
vn -1.000000 0.000000 0.000000
vn -1.000000 0.000000 0.000000
vn 0.000000 0.000000 1.000000
vn 0.000000 0.000000 1.000000
vn 1.000000 0.000000 0.000000
vn 1.000000 0.000000 0.000000
vn 1.000000 -0.000000 0.000000
vn 1.000000 -0.000000 0.000000
vn 0.000000 0.000000 -1.000000
vn 0.000000 0.000000 -1.000000
vn 0.000000 -1.000000 0.000000
vn 0.000000 -1.000000 0.000000
vn 0.000000 -1.000000 0.000000
vn 0.000000 -1.000000 0.000000
vn 0.000000 -1.000000 0.000000
vn 0.000000 -1.000000 0.000000
vn 0.000000 -1.000000 0.000000
vn 0.000000 -1.000000 0.000000
vn -0.000004 0.000000 1.000000
vn -0.000004 0.000000 1.000000
vn -0.000004 0.000000 1.000000
vn -0.000004 0.000000 1.000000
vn 0.000000 -0.000000 0.000000
vn 0.000000 -0.000000 0.000000
vn 0.000000 -1.000000 0.000000
vn 0.000000 -1.000000 0.000000
vn 0.000000 -0.000000 1.000000
vn 0.000000 -0.000000 1.000000
vn 0.000000 -0.000000 1.000000
vn 0.000000 -0.000000 1.000000
vn 0.000000 0.000000 -0.000000
vn 0.000000 0.000000 -0.000000
vn 0.000000 0.656802 -0.754063
vn 0.000000 0.656802 -0.754063
vn 0.000000 0.000000 -1.000000
vn 0.000000 0.000000 -1.000000
vn 0.000000 0.000000 -1.000000
vn 0.000000 0.000000 -1.000000
vn 0.000000 -0.000000 0.000000
vn 0.000000 -0.000000 0.000000
vn 0.000000 -1.000000 0.000000
vn 0.000000 -1.000000 0.000000
vn -0.000004 0.000000 -1.000000
vn -0.000004 0.000000 -1.000000
vn -0.000004 0.000000 -1.000000
vn -0.000004 0.000000 -1.000000
vn 0.000000 0.000000 0.000000
vn 0.000000 0.000000 0.000000
vn 0.000000 1.000000 0.000000
vn 0.000000 1.000000 0.000000
vn 0.000000 -0.914622 0.404310
vn 0.000000 -0.914622 0.404310
vn 0.000000 -0.914622 0.404310
vn 0.000000 -0.914622 0.404310
vn -0.969085 0.000000 0.246728
vn -0.969085 0.000000 0.246728
vn -0.969085 0.000000 0.246728
vn -0.969085 0.000000 0.246728
vn -0.969085 0.000000 0.246728
vn -0.969085 0.000000 0.246728
vn -0.969085 0.000000 0.246728
vn 0.000000 0.914621 0.404313
vn 0.000000 0.914621 0.404313
vn 0.000000 0.914621 0.404313
vn 0.000000 0.914621 0.404313
vn 0.969085 0.000000 0.246728
vn 0.969085 0.000000 0.246728
vn 0.969085 0.000000 0.246728
vn 0.969085 0.000000 0.246728
vn 0.969085 0.000000 0.246728
vn 0.969085 0.000000 0.246728
vn 0.969085 0.000000 0.246728
vn 0.000000 -0.914439 -0.404723
vn 0.000000 -0.914439 -0.404723
vn 0.000000 -0.914439 -0.404723
vn 0.000000 -0.914439 -0.404723
vn 0.969013 0.000000 -0.247012
vn 0.969012 0.000000 -0.247012
vn 0.969013 0.000000 -0.247012
vn 0.969013 0.000000 -0.247012
vn 0.969013 0.000000 -0.247012
vn 0.969012 0.000000 -0.247012
vn 0.969013 0.000000 -0.247012
vn 0.000000 0.914438 -0.404727
vn 0.000000 0.914438 -0.404727
vn 0.000000 0.914438 -0.404727
vn 0.000000 0.914438 -0.404727
vn -0.969012 0.000000 -0.247012
vn -0.969012 0.000000 -0.247012
vn -0.969012 0.000000 -0.247012
vn -0.969012 0.000000 -0.247012
vn -0.969012 0.000000 -0.247012
vn -0.969012 0.000000 -0.247012
vn -0.969012 0.000000 -0.247012
vn 0.000000 0.000000 1.000000
vn 0.000000 0.000000 1.000000
vn 0.000000 0.000000 1.000000
vn 0.000000 0.000000 1.000000
vn 0.000000 0.000000 1.000000
vn 0.000000 0.000000 1.000000
vn 0.000000 0.000000 1.000000
vn 0.000000 0.000000 1.000000
vn 0.000000 0.000000 1.000000
vn 0.000000 0.000000 1.000000
vn 0.000000 0.000000 -1.000000
vn 0.000000 0.000000 -1.000000
vn 0.000000 0.000000 -1.000000
vn 0.000000 0.000000 -1.000000
vn -1.000000 0.000000 0.000000
vn -1.000000 0.000000 0.000000
vn -1.000000 0.000000 0.000000
vn -1.000000 0.000000 0.000000
vn -0.000000 -1.000000 -0.000000
vn -0.000000 -1.000000 -0.000000
vn -0.000000 -1.000000 -0.000000
vn -0.000000 -1.000000 -0.000000
vn 1.000000 0.000000 0.000000
vn 1.000000 0.000000 0.000000
vn 1.000000 0.000000 0.000000
vn 1.000000 0.000000 0.000000
vn 0.000000 1.000000 0.000000
vn 0.000000 1.000000 0.000000
vn 0.000000 1.000000 0.000000
vn 0.000000 1.000000 0.000000
vn 1.000000 0.000000 0.000000
vn 1.000000 0.000000 0.000000
vn 1.000000 0.000000 0.000000
vn 1.000000 0.000000 0.000000
vn -0.000000 -1.000000 0.000000
vn -0.000000 -1.000000 0.000000
vn -0.000000 -1.000000 0.000000
vn -0.000000 -1.000000 0.000000
vn -1.000000 0.000000 0.000000
vn -1.000000 0.000000 0.000000
vn -1.000000 0.000000 0.000000
vn -1.000000 0.000000 0.000000
vn 0.000000 1.000000 0.000000
vn 0.000000 1.000000 0.000000
vn 0.000000 1.000000 0.000000
vn 0.000000 1.000000 0.000000
vn 0.000000 0.000000 -1.000000
vn 0.000000 0.000000 -1.000000
vn 0.000000 0.000000 -1.000000
vn 0.000000 0.000000 -1.000000
vn 0.000000 0.000000 -1.000000
vn 0.000000 0.000000 -1.000000
vn -1.000000 0.000000 0.000000
vn -1.000000 0.000000 0.000000
vn -1.000000 0.000000 0.000000
vn -1.000000 0.000000 0.000000
vn -0.000000 0.000000 0.000000
vn -0.000000 0.000000 0.000000
vn -1.000000 0.000000 0.000000
vn -1.000000 0.000000 0.000000
vn -1.000000 0.000000 0.000000
vn -1.000000 0.000000 0.000000
vn -1.000000 0.000000 0.000000
vn -1.000000 0.000000 0.000000
vn 0.000000 0.000000 0.000000
vn 0.000000 0.000000 0.000000
vn 1.000000 0.000000 0.000000
vn 1.000000 0.000000 0.000000
vn -1.000000 0.000000 0.000000
vn -1.000000 0.000000 0.000000
vn -1.000000 0.000000 0.000000
vn -1.000000 0.000000 0.000000
vn 0.000000 0.000000 0.000000
vn 1.000000 0.000000 0.000000
vn 1.000000 0.000000 0.000000
vn 1.000000 0.000000 0.000000
vn -1.000000 0.000000 0.000000
vn -1.000000 0.000000 0.000000
vn -1.000000 0.000000 0.000000
vn -1.000000 0.000000 0.000000
vn 0.000000 0.000000 0.000000
vn 0.000000 0.000000 0.000000
vn 1.000000 0.000000 0.000000
vn 1.000000 0.000000 0.000000
vn -0.979989 -0.199050 0.000000
vn -0.979989 -0.199050 0.000000
vn -0.979989 -0.199050 0.000000
vn -0.979989 -0.199050 0.000000
vn -0.000000 0.000000 1.000000
vn -0.000000 0.000000 1.000000
vn -0.000000 0.000000 1.000000
vn -0.000000 0.000000 1.000000
vn -0.979989 0.199050 0.000000
vn -0.979989 0.199050 0.000000
vn -0.979989 0.199050 0.000000
vn -0.979989 0.199050 0.000000
vn 0.000000 0.000000 -1.000000
vn 0.000000 0.000000 -1.000000
vn 0.000000 0.000000 -1.000000
vn 0.000000 0.000000 -1.000000
vn -0.979989 -0.199050 0.000000
vn -0.979989 -0.199050 0.000000
vn -0.979989 -0.199050 0.000000
vn -0.979989 -0.199050 0.000000
vn -0.000005 0.000000 1.000000
vn -0.000005 0.000000 1.000000
vn -0.000005 0.000000 1.000000
vn -0.000005 0.000000 1.000000
vn -0.979989 0.199050 0.000000
vn -0.979989 0.199050 0.000000
vn -0.979989 0.199050 0.000000
vn -0.979989 0.199050 0.000000
vn -0.000000 0.000000 -1.000000
vn -0.000000 0.000000 -1.000000
vn -0.000000 0.000000 -1.000000
vn -0.000000 0.000000 -1.000000
s 1
g OusideDoorsLrg_LP
usemtl initialShadingGroup
f 16/91/1 13/92/2 7/93/3 8/94/4
s 2
f 1/139/5 2/140/6 24/141/7 17/142/8
s 3
f 13/1/9 19/2/10 20/3/11 7/4/12
s 4
f 20/145/13 21/146/14 8/147/15 7/148/16
s 5
f 21/13/17 22/14/18 16/15/19 8/16/20
s 3
f 1/9/21 17/10/22 18/5/23 10/6/24
s off
f 4/99/25 12/100/26 9/101/27 3/102/28
s 5
f 2/21/29 11/19/30 23/20/31 24/22/32
s 1
f 2/97/33 1/98/34 10/95/35 11/96/36
s 3
f 18/5/23 19/2/10 13/1/9 10/6/24
s 5
f 11/19/30 16/15/19 22/14/18 23/20/31
s 1
f 10/95/35 13/92/2 16/91/1 11/96/36
s 3
f 3/11/37 9/12/38 18/5/23 17/10/22
f 14/7/39 5/8/40 20/3/11 19/2/10
s 4
f 20/145/13 5/149/41 6/150/42 21/146/14
s 5
f 6/17/43 15/18/44 22/14/18 21/13/17
f 12/23/45 4/24/46 24/22/32 23/20/31
s 2
f 4/143/47 3/144/48 17/142/8 24/141/7
s off
f 5/109/49 14/110/50 15/111/51 6/112/52
f 19/119/53 18/120/54 23/121/55 22/122/56
f 9/151/57 25/152/58 26/153/59 18/154/60
f 9/101/61 12/100/62 27/103/63 25/104/64
f 27/155/65 12/156/66 23/157/67 28/158/68
f 23/137/69 18/138/70 26/136/71 28/135/72
f 15/159/73 29/160/74 30/161/75 22/162/76
f 15/111/77 14/110/78 31/113/79 29/114/80
f 31/163/81 14/164/82 19/165/83 32/166/84
f 19/123/85 22/124/86 30/125/87 32/126/88
f 33/107/89 34/106/90 38/105/91 37/108/92
f 34/25/93 33/26/94 49/27/95 45/28/96 48/29/97 36/30/98 35/31/99
f 35/131/100 36/132/101 39/133/102 40/134/103
f 37/42/104 38/43/105 40/44/106 39/45/107 47/46/108 46/47/109 50/48/110
f 37/117/111 41/116/112 43/115/113 33/118/114
f 41/51/115 37/52/116 50/53/117 46/54/118 47/55/119 39/56/120 42/57/121
f 42/127/122 39/129/123 36/130/124 44/128/125
f 49/60/126 33/61/127 43/62/128 44/63/129 36/64/130 48/65/131 45/66/132
f 36/167/133 48/168/134 45/169/135 49/170/136 33/171/137 37/172/138 50/173/139 46/174/140 47/175/141 39/176/142
s 7
f 49/177/143 50/178/144 37/179/145 33/180/146
s off
f 59/41/147 60/40/148 61/39/149 62/38/150
f 25/104/151 27/103/152 38/105/153 34/106/154
f 40/44/155 38/43/156 27/49/157 28/50/158
f 28/135/159 26/136/160 35/131/161 40/134/162
f 29/58/163 41/51/164 42/57/165 30/59/166
f 29/114/167 31/113/168 43/115/169 41/116/170
f 64/67/171 63/68/172 65/69/173 66/70/174
f 32/126/175 30/125/176 42/127/177 44/128/178
s 7
f 39/185/179 47/184/180 48/183/181 36/186/182
f 48/183/181 47/184/180 46/182/183 45/181/184
f 45/181/184 46/182/183 50/178/144 49/177/143
s off
f 25/36/185 34/25/186 52/33/187 51/37/188
f 34/25/189 35/31/190 53/32/191 52/33/192
f 35/31/193 26/34/194 54/35/195 53/32/196
f 26/79/197 25/80/198 51/81/199 54/82/200
f 43/75/201 31/76/202 55/72/203 56/71/204
f 31/83/205 32/84/206 57/85/207 55/86/208
f 32/77/209 44/78/210 58/74/211 57/73/212
f 44/87/213 43/88/214 56/89/215 58/90/216
f 51/37/217 52/33/218 60/40/219 59/41/220
f 52/187/221 53/188/222 61/189/223 60/190/224
f 53/32/225 54/35/226 62/38/227 61/39/228
f 54/191/229 51/192/230 59/193/231 62/194/232
f 56/71/233 55/72/234 63/68/235 64/67/236
f 55/195/237 57/196/238 65/197/239 63/198/240
f 57/73/241 58/74/242 66/70/243 65/69/244
f 58/199/245 56/200/246 64/201/247 66/202/248
