# This file uses centimeters as units for non-parametric coordinates.

mtllib WallCorner_LP.mtl
g default
v -0.075000 0.000000 0.075000
v 0.063267 0.000000 -0.075000
v -0.075000 3.000000 0.075000
v 0.075000 3.000000 -0.075000
v -0.075000 3.000000 -1.000000
v 0.075000 3.000000 -1.000000
v -0.075000 0.000000 -1.000000
v 0.063267 0.000000 -1.000000
v 1.000000 3.000000 -0.075000
v 1.000000 3.000000 0.075000
v 1.000000 0.000000 -0.075000
v 1.000000 0.000000 0.075000
vt 0.123713 0.104274
vt 0.111021 0.011423
vt 0.123972 0.011459
vt 0.030898 0.104017
vt 0.030931 0.092079
vt 0.123714 0.104274
vt 0.263446 0.724800
vt 0.263995 0.983821
vt 0.089589 0.725809
vt 0.091486 0.984822
vt 0.209513 0.264532
vt 0.222464 0.264544
vt 0.222229 0.523564
vt 0.209278 0.523552
vt 0.189022 0.517914
vt 0.176071 0.517949
vt 0.176381 0.258927
vt 0.188319 0.258895
vt 0.275216 0.724450
vt 0.277112 0.983463
vt 0.102706 0.725456
vt 0.183582 0.724969
vt 0.184131 0.983990
vt 0.104268 0.984472
vt 0.030897 0.104015
vt 0.030934 0.091064
vt 0.111020 0.011423
vt 0.123971 0.011459
vt 0.182402 0.725129
vt 0.110796 0.092300
vt 0.184299 0.984142
vt 0.110798 0.091287
vn 0.000000 1.000000 0.000000
vn 0.000000 1.000000 0.000000
vn 0.000000 1.000000 0.000000
vn 0.000000 1.000000 0.000000
vn 0.000000 0.000000 -1.000000
vn 0.000000 0.000000 -1.000000
vn 0.000000 0.000000 -1.000000
vn 0.000000 0.000000 -1.000000
vn 0.000000 -1.000000 0.000000
vn 0.000000 -1.000000 0.000000
vn 0.000000 -1.000000 0.000000
vn 0.000000 -1.000000 0.000000
vn 0.999992 -0.003911 0.000000
vn 0.999992 -0.003911 0.000000
vn 0.999992 -0.003911 0.000000
vn 0.999992 -0.003911 0.000000
vn -1.000000 -0.000000 -0.000000
vn -1.000000 -0.000000 -0.000000
vn -1.000000 -0.000000 -0.000000
vn -1.000000 -0.000000 -0.000000
vn 0.000000 1.000000 0.000000
vn 0.000000 1.000000 0.000000
vn 0.000000 1.000000 0.000000
vn 0.000000 1.000000 0.000000
vn 1.000000 0.000000 0.000000
vn 1.000000 0.000000 0.000000
vn 1.000000 0.000000 0.000000
vn 1.000000 0.000000 0.000000
vn 0.000000 -1.000000 0.000000
vn 0.000000 -1.000000 0.000000
vn 0.000000 -1.000000 0.000000
vn 0.000000 -1.000000 0.000000
vn 0.000000 0.000000 1.000000
vn 0.000000 0.000000 1.000000
vn 0.000000 0.000000 1.000000
vn 0.000000 0.000000 1.000000
vn 0.000000 0.000000 -1.000000
vn 0.000000 0.000000 -1.000000
vn 0.000000 0.000000 -1.000000
vn 0.000000 0.000000 -1.000000
s off
g WallCorner_LP
usemtl initialShadingGroup
f 3/1/1 4/32/2 6/2/3 5/3/4
f 5/15/5 6/16/6 8/17/7 7/18/8
f 7/4/9 8/5/10 2/30/11 1/6/12
f 2/22/13 8/7/14 6/8/15 4/23/16
f 7/9/17 1/29/18 3/31/19 5/10/20
f 4/32/21 3/1/22 10/25/23 9/26/24
f 9/11/25 10/12/26 12/13/27 11/14/28
f 11/27/29 12/28/30 1/6/31 2/30/32
f 1/29/33 12/19/34 10/20/35 3/31/36
f 11/21/37 2/22/38 4/23/39 9/24/40
