# This file uses centimeters as units for non-parametric coordinates.

mtllib Wall6_LP.mtl
g default
v -0.075000 0.000000 0.000000
v 0.075000 0.000000 0.000000
v -0.075000 3.000000 0.000000
v 0.075000 3.000000 0.000000
v -0.075000 3.000000 -1.000000
v 0.075000 3.000000 -1.000000
v -0.075000 0.000000 -1.000000
v 0.075000 0.000000 -1.000000
v -0.075000 0.000000 -1.000000
v 0.075000 0.000000 -1.000000
v -0.075000 3.000000 -1.000000
v 0.075000 3.000000 -1.000000
v -0.075000 3.000000 -2.000000
v 0.075000 3.000000 -2.000000
v -0.075000 0.000000 -2.000000
v 0.075000 0.000000 -2.000000
v -0.075000 0.000000 -2.000000
v 0.075000 0.000000 -2.000000
v -0.075000 3.000000 -2.000000
v 0.075000 3.000000 -2.000000
v -0.075000 3.000000 -3.000000
v 0.075000 3.000000 -3.000000
v -0.075000 0.000000 -3.000000
v 0.075000 0.000000 -3.000000
v -0.075000 0.000000 3.000000
v 0.075000 0.000000 3.000000
v -0.075000 3.000000 3.000000
v 0.075000 3.000000 3.000000
v -0.075000 3.000000 2.000000
v 0.075000 3.000000 2.000000
v -0.075000 0.000000 2.000000
v 0.075000 0.000000 2.000000
v -0.075000 0.000000 2.000000
v 0.075000 0.000000 2.000000
v -0.075000 3.000000 2.000000
v 0.075000 3.000000 2.000000
v -0.075000 3.000000 1.000000
v 0.075000 3.000000 1.000000
v -0.075000 0.000000 1.000000
v 0.075000 0.000000 1.000000
v -0.075000 0.000000 1.000000
v 0.075000 0.000000 1.000000
v -0.075000 3.000000 1.000000
v 0.075000 3.000000 1.000000
v -0.075000 3.000000 0.000000
v 0.075000 3.000000 0.000000
v -0.075000 0.000000 0.000000
v 0.075000 0.000000 0.000000
vt 0.288078 0.864945
vt 0.301029 0.864945
vt 0.301029 0.951285
vt 0.288078 0.951285
vt 0.389533 0.864945
vt 0.402484 0.864945
vt 0.402484 0.951285
vt 0.389533 0.951285
vt 0.026685 0.499185
vt 0.113025 0.499185
vt 0.113025 0.758205
vt 0.026685 0.758205
vt 0.168722 0.499185
vt 0.255062 0.499185
vt 0.255062 0.758205
vt 0.168722 0.758205
vt 0.572152 0.864946
vt 0.585103 0.864946
vt 0.585103 0.951285
vt 0.572152 0.951285
vt 0.597516 0.864946
vt 0.610467 0.864946
vt 0.610467 0.951285
vt 0.597516 0.951285
vt 0.452797 0.080055
vt 0.539137 0.080055
vt 0.539137 0.339075
vt 0.452797 0.339075
vt 0.168722 0.080055
vt 0.255062 0.080055
vt 0.255062 0.339075
vt 0.168722 0.339075
vt 0.313441 0.864945
vt 0.326392 0.864945
vt 0.326392 0.951285
vt 0.313441 0.951285
vt 0.906955 0.499186
vt 0.919906 0.499186
vt 0.919906 0.758206
vt 0.906955 0.758206
vt 0.414897 0.864945
vt 0.427848 0.864945
vt 0.427848 0.951286
vt 0.414897 0.951286
vt 0.736872 0.499185
vt 0.823212 0.499185
vt 0.823212 0.758205
vt 0.736872 0.758205
vt 0.594835 0.080055
vt 0.681175 0.080055
vt 0.681175 0.339075
vt 0.594835 0.339075
vt 0.906955 0.080055
vt 0.919906 0.080055
vt 0.919906 0.339075
vt 0.906955 0.339075
vt 0.338805 0.864945
vt 0.351756 0.864945
vt 0.351756 0.951285
vt 0.338805 0.951285
vt 0.622880 0.864945
vt 0.635831 0.864945
vt 0.635831 0.951285
vt 0.622880 0.951285
vt 0.452797 0.499185
vt 0.539137 0.499185
vt 0.539137 0.758205
vt 0.452797 0.758205
vt 0.594835 0.499185
vt 0.681175 0.499185
vt 0.681175 0.758205
vt 0.594835 0.758205
vt 0.648244 0.864945
vt 0.661195 0.864945
vt 0.661195 0.951285
vt 0.648244 0.951285
vt 0.673608 0.864945
vt 0.686559 0.864945
vt 0.686559 0.951285
vt 0.673608 0.951285
vt 0.310760 0.080055
vt 0.397100 0.080055
vt 0.397100 0.339075
vt 0.310760 0.339075
vt 0.026685 0.080055
vt 0.113025 0.080055
vt 0.113025 0.339075
vt 0.026685 0.339075
vt 0.364169 0.864945
vt 0.377120 0.864945
vt 0.377120 0.951285
vt 0.364169 0.951285
vt 0.440260 0.864945
vt 0.453211 0.864945
vt 0.453211 0.951285
vt 0.440260 0.951285
vt 0.736872 0.080055
vt 0.823212 0.080055
vt 0.823212 0.339075
vt 0.736872 0.339075
vt 0.310760 0.499185
vt 0.397100 0.499185
vt 0.397100 0.758205
vt 0.310760 0.758205
vn 0.000000 1.000000 0.000000
vn 0.000000 1.000000 0.000000
vn 0.000000 1.000000 0.000000
vn 0.000000 1.000000 0.000000
vn 0.000000 -1.000000 0.000000
vn 0.000000 -1.000000 0.000000
vn 0.000000 -1.000000 0.000000
vn 0.000000 -1.000000 0.000000
vn 1.000000 0.000000 0.000000
vn 1.000000 0.000000 0.000000
vn 1.000000 0.000000 0.000000
vn 1.000000 0.000000 0.000000
vn -1.000000 0.000000 0.000000
vn -1.000000 0.000000 0.000000
vn -1.000000 0.000000 0.000000
vn -1.000000 0.000000 0.000000
vn 0.000000 1.000000 0.000000
vn 0.000000 1.000000 0.000000
vn 0.000000 1.000000 0.000000
vn 0.000000 1.000000 0.000000
vn 0.000000 -1.000000 0.000000
vn 0.000000 -1.000000 0.000000
vn 0.000000 -1.000000 0.000000
vn 0.000000 -1.000000 0.000000
vn 1.000000 0.000000 0.000000
vn 1.000000 0.000000 0.000000
vn 1.000000 0.000000 0.000000
vn 1.000000 0.000000 0.000000
vn -1.000000 0.000000 0.000000
vn -1.000000 0.000000 0.000000
vn -1.000000 0.000000 0.000000
vn -1.000000 0.000000 0.000000
vn 0.000000 1.000000 0.000000
vn 0.000000 1.000000 0.000000
vn 0.000000 1.000000 0.000000
vn 0.000000 1.000000 0.000000
vn 0.000000 0.000000 -1.000000
vn 0.000000 0.000000 -1.000000
vn 0.000000 0.000000 -1.000000
vn 0.000000 0.000000 -1.000000
vn 0.000000 -1.000000 0.000000
vn 0.000000 -1.000000 0.000000
vn 0.000000 -1.000000 0.000000
vn 0.000000 -1.000000 0.000000
vn 1.000000 0.000000 0.000000
vn 1.000000 0.000000 0.000000
vn 1.000000 0.000000 0.000000
vn 1.000000 0.000000 0.000000
vn -1.000000 0.000000 0.000000
vn -1.000000 0.000000 0.000000
vn -1.000000 0.000000 0.000000
vn -1.000000 0.000000 0.000000
vn 0.000000 0.000000 1.000000
vn 0.000000 0.000000 1.000000
vn 0.000000 0.000000 1.000000
vn 0.000000 0.000000 1.000000
vn 0.000000 1.000000 0.000000
vn 0.000000 1.000000 0.000000
vn 0.000000 1.000000 0.000000
vn 0.000000 1.000000 0.000000
vn 0.000000 -1.000000 0.000000
vn 0.000000 -1.000000 0.000000
vn 0.000000 -1.000000 0.000000
vn 0.000000 -1.000000 0.000000
vn 1.000000 0.000000 0.000000
vn 1.000000 0.000000 0.000000
vn 1.000000 0.000000 0.000000
vn 1.000000 0.000000 0.000000
vn -1.000000 0.000000 0.000000
vn -1.000000 0.000000 0.000000
vn -1.000000 0.000000 0.000000
vn -1.000000 0.000000 0.000000
vn 0.000000 1.000000 0.000000
vn 0.000000 1.000000 0.000000
vn 0.000000 1.000000 0.000000
vn 0.000000 1.000000 0.000000
vn 0.000000 -1.000000 0.000000
vn 0.000000 -1.000000 0.000000
vn 0.000000 -1.000000 0.000000
vn 0.000000 -1.000000 0.000000
vn 1.000000 0.000000 0.000000
vn 1.000000 0.000000 0.000000
vn 1.000000 0.000000 0.000000
vn 1.000000 0.000000 0.000000
vn -1.000000 0.000000 0.000000
vn -1.000000 0.000000 0.000000
vn -1.000000 0.000000 0.000000
vn -1.000000 0.000000 0.000000
vn 0.000000 1.000000 0.000000
vn 0.000000 1.000000 0.000000
vn 0.000000 1.000000 0.000000
vn 0.000000 1.000000 0.000000
vn 0.000000 -1.000000 0.000000
vn 0.000000 -1.000000 0.000000
vn 0.000000 -1.000000 0.000000
vn 0.000000 -1.000000 0.000000
vn 1.000000 0.000000 0.000000
vn 1.000000 0.000000 0.000000
vn 1.000000 0.000000 0.000000
vn 1.000000 0.000000 0.000000
vn -1.000000 0.000000 0.000000
vn -1.000000 0.000000 0.000000
vn -1.000000 0.000000 0.000000
vn -1.000000 0.000000 0.000000
s off
g Wall6_LP
usemtl initialShadingGroup
f 3/1/1 4/2/2 6/3/3 5/4/4
f 7/5/5 8/6/6 2/7/7 1/8/8
f 2/9/9 8/10/10 6/11/11 4/12/12
f 7/13/13 1/14/14 3/15/15 5/16/16
f 11/17/17 12/18/18 14/19/19 13/20/20
f 15/21/21 16/22/22 10/23/23 9/24/24
f 10/25/25 16/26/26 14/27/27 12/28/28
f 15/29/29 9/30/30 11/31/31 13/32/32
f 19/33/33 20/34/34 22/35/35 21/36/36
f 21/37/37 22/38/38 24/39/39 23/40/40
f 23/41/41 24/42/42 18/43/43 17/44/44
f 18/45/45 24/46/46 22/47/47 20/48/48
f 23/49/49 17/50/50 19/51/51 21/52/52
f 25/53/53 26/54/54 28/55/55 27/56/56
f 27/57/57 28/58/58 30/59/59 29/60/60
f 31/61/61 32/62/62 26/63/63 25/64/64
f 26/65/65 32/66/66 30/67/67 28/68/68
f 31/69/69 25/70/70 27/71/71 29/72/72
f 35/73/73 36/74/74 38/75/75 37/76/76
f 39/77/77 40/78/78 34/79/79 33/80/80
f 34/81/81 40/82/82 38/83/83 36/84/84
f 39/85/85 33/86/86 35/87/87 37/88/88
f 43/89/89 44/90/90 46/91/91 45/92/92
f 47/93/93 48/94/94 42/95/95 41/96/96
f 42/97/97 48/98/98 46/99/99 44/100/100
f 47/101/101 41/102/102 43/103/103 45/104/104
