# This file uses centimeters as units for non-parametric coordinates.

mtllib Wall5_LP.mtl
g default
v -0.075000 0.000000 2.000000
v 0.075000 0.000000 2.000000
v -0.075000 3.000000 2.000000
v 0.075000 3.000000 2.000000
v -0.075000 3.000000 1.000000
v 0.075000 3.000000 1.000000
v -0.075000 0.000000 1.000000
v 0.075000 0.000000 1.000000
v -0.075000 0.000000 1.000000
v 0.075000 0.000000 1.000000
v -0.075000 3.000000 1.000000
v 0.075000 3.000000 1.000000
v -0.075000 3.000000 0.000000
v 0.075000 3.000000 0.000000
v -0.075000 0.000000 0.000000
v 0.075000 0.000000 0.000000
v -0.075000 0.000000 0.000000
v 0.075000 0.000000 0.000000
v -0.075000 3.000000 0.000000
v 0.075000 3.000000 0.000000
v -0.075000 3.000000 -1.000000
v 0.075000 3.000000 -1.000000
v -0.075000 0.000000 -1.000000
v 0.075000 0.000000 -1.000000
v -0.075000 0.000000 -1.000000
v 0.075000 0.000000 -1.000000
v -0.075000 3.000000 -1.000000
v 0.075000 3.000000 -1.000000
v -0.075000 3.000000 -2.000000
v 0.075000 3.000000 -2.000000
v -0.075000 0.000000 -2.000000
v 0.075000 0.000000 -2.000000
v -0.075000 0.000000 -2.000000
v 0.075000 0.000000 -2.000000
v -0.075000 3.000000 -2.000000
v 0.075000 3.000000 -2.000000
v -0.075000 3.000000 -3.000000
v 0.075000 3.000000 -3.000000
v -0.075000 0.000000 -3.000000
v 0.075000 0.000000 -3.000000
vt 0.876059 0.109270
vt 0.889010 0.109270
vt 0.889010 0.368290
vt 0.876059 0.368290
vt 0.955204 0.036423
vt 0.968155 0.036423
vt 0.968155 0.122763
vt 0.955204 0.122763
vt 0.955204 0.513983
vt 0.968155 0.513983
vt 0.968155 0.600323
vt 0.955204 0.600323
vt 0.690689 0.109270
vt 0.777029 0.109270
vt 0.777029 0.368290
vt 0.690689 0.368290
vt 0.363556 0.586829
vt 0.449896 0.586829
vt 0.449896 0.845849
vt 0.363556 0.845849
vt 0.955204 0.673169
vt 0.968155 0.673169
vt 0.968155 0.759510
vt 0.955204 0.759510
vt 0.955204 0.832356
vt 0.968155 0.832356
vt 0.968155 0.918696
vt 0.955204 0.918696
vt 0.363556 0.109270
vt 0.449896 0.109270
vt 0.449896 0.368290
vt 0.363556 0.368290
vt 0.036423 0.109270
vt 0.122763 0.109270
vt 0.122763 0.368290
vt 0.036423 0.368290
vt 0.955204 0.195610
vt 0.968155 0.195610
vt 0.968155 0.281950
vt 0.955204 0.281950
vt 0.981586 0.036423
vt 0.994537 0.036423
vt 0.994537 0.122763
vt 0.981586 0.122763
vt 0.527122 0.586829
vt 0.613462 0.586829
vt 0.613462 0.845849
vt 0.527122 0.845849
vt 0.690689 0.586829
vt 0.777029 0.586829
vt 0.777029 0.845849
vt 0.690689 0.845849
vt 0.955204 0.354796
vt 0.968155 0.354796
vt 0.968155 0.441136
vt 0.955204 0.441136
vt 0.981586 0.195610
vt 0.994537 0.195610
vt 0.994537 0.281950
vt 0.981586 0.281950
vt 0.036423 0.586829
vt 0.122763 0.586829
vt 0.122763 0.845849
vt 0.036423 0.845849
vt 0.199990 0.586829
vt 0.286330 0.586829
vt 0.286330 0.845849
vt 0.199990 0.845849
vt 0.981586 0.354797
vt 0.994537 0.354797
vt 0.994537 0.441136
vt 0.981586 0.441136
vt 0.849677 0.109270
vt 0.862628 0.109270
vt 0.862628 0.368290
vt 0.849677 0.368290
vt 0.981586 0.513983
vt 0.994537 0.513983
vt 0.994537 0.600323
vt 0.981586 0.600323
vt 0.527122 0.109270
vt 0.613462 0.109270
vt 0.613462 0.368290
vt 0.527122 0.368290
vt 0.199990 0.109270
vt 0.286330 0.109270
vt 0.286330 0.368290
vt 0.199990 0.368290
vn 0.000000 0.000000 1.000000
vn 0.000000 0.000000 1.000000
vn 0.000000 0.000000 1.000000
vn 0.000000 0.000000 1.000000
vn 0.000000 1.000000 0.000000
vn 0.000000 1.000000 0.000000
vn 0.000000 1.000000 0.000000
vn 0.000000 1.000000 0.000000
vn 0.000000 -1.000000 0.000000
vn 0.000000 -1.000000 0.000000
vn 0.000000 -1.000000 0.000000
vn 0.000000 -1.000000 0.000000
vn 1.000000 0.000000 0.000000
vn 1.000000 0.000000 0.000000
vn 1.000000 0.000000 0.000000
vn 1.000000 0.000000 0.000000
vn -1.000000 0.000000 0.000000
vn -1.000000 0.000000 0.000000
vn -1.000000 0.000000 0.000000
vn -1.000000 0.000000 0.000000
vn 0.000000 1.000000 0.000000
vn 0.000000 1.000000 0.000000
vn 0.000000 1.000000 0.000000
vn 0.000000 1.000000 0.000000
vn 0.000000 -1.000000 0.000000
vn 0.000000 -1.000000 0.000000
vn 0.000000 -1.000000 0.000000
vn 0.000000 -1.000000 0.000000
vn 1.000000 0.000000 0.000000
vn 1.000000 0.000000 0.000000
vn 1.000000 0.000000 0.000000
vn 1.000000 0.000000 0.000000
vn -1.000000 0.000000 0.000000
vn -1.000000 0.000000 0.000000
vn -1.000000 0.000000 0.000000
vn -1.000000 0.000000 0.000000
vn 0.000000 1.000000 0.000000
vn 0.000000 1.000000 0.000000
vn 0.000000 1.000000 0.000000
vn 0.000000 1.000000 0.000000
vn 0.000000 -1.000000 0.000000
vn 0.000000 -1.000000 0.000000
vn 0.000000 -1.000000 0.000000
vn 0.000000 -1.000000 0.000000
vn 1.000000 0.000000 0.000000
vn 1.000000 0.000000 0.000000
vn 1.000000 0.000000 0.000000
vn 1.000000 0.000000 0.000000
vn -1.000000 0.000000 0.000000
vn -1.000000 0.000000 0.000000
vn -1.000000 0.000000 0.000000
vn -1.000000 0.000000 0.000000
vn 0.000000 1.000000 0.000000
vn 0.000000 1.000000 0.000000
vn 0.000000 1.000000 0.000000
vn 0.000000 1.000000 0.000000
vn 0.000000 -1.000000 0.000000
vn 0.000000 -1.000000 0.000000
vn 0.000000 -1.000000 0.000000
vn 0.000000 -1.000000 0.000000
vn 1.000000 0.000000 0.000000
vn 1.000000 0.000000 0.000000
vn 1.000000 0.000000 0.000000
vn 1.000000 0.000000 0.000000
vn -1.000000 0.000000 0.000000
vn -1.000000 0.000000 0.000000
vn -1.000000 0.000000 0.000000
vn -1.000000 0.000000 0.000000
vn 0.000000 1.000000 0.000000
vn 0.000000 1.000000 0.000000
vn 0.000000 1.000000 0.000000
vn 0.000000 1.000000 0.000000
vn 0.000000 0.000000 -1.000000
vn 0.000000 0.000000 -1.000000
vn 0.000000 0.000000 -1.000000
vn 0.000000 0.000000 -1.000000
vn 0.000000 -1.000000 0.000000
vn 0.000000 -1.000000 0.000000
vn 0.000000 -1.000000 0.000000
vn 0.000000 -1.000000 0.000000
vn 1.000000 0.000000 0.000000
vn 1.000000 0.000000 0.000000
vn 1.000000 0.000000 0.000000
vn 1.000000 0.000000 0.000000
vn -1.000000 0.000000 0.000000
vn -1.000000 0.000000 0.000000
vn -1.000000 0.000000 0.000000
vn -1.000000 0.000000 0.000000
s off
g Wall5_LP
usemtl initialShadingGroup
f 1/1/1 2/2/2 4/3/3 3/4/4
f 3/5/5 4/6/6 6/7/7 5/8/8
f 7/9/9 8/10/10 2/11/11 1/12/12
f 2/13/13 8/14/14 6/15/15 4/16/16
f 7/17/17 1/18/18 3/19/19 5/20/20
f 11/21/21 12/22/22 14/23/23 13/24/24
f 15/25/25 16/26/26 10/27/27 9/28/28
f 10/29/29 16/30/30 14/31/31 12/32/32
f 15/33/33 9/34/34 11/35/35 13/36/36
f 19/37/37 20/38/38 22/39/39 21/40/40
f 23/41/41 24/42/42 18/43/43 17/44/44
f 18/45/45 24/46/46 22/47/47 20/48/48
f 23/49/49 17/50/50 19/51/51 21/52/52
f 27/53/53 28/54/54 30/55/55 29/56/56
f 31/57/57 32/58/58 26/59/59 25/60/60
f 26/61/61 32/62/62 30/63/63 28/64/64
f 31/65/65 25/66/66 27/67/67 29/68/68
f 35/69/69 36/70/70 38/71/71 37/72/72
f 37/73/73 38/74/74 40/75/75 39/76/76
f 39/77/77 40/78/78 34/79/79 33/80/80
f 34/81/81 40/82/82 38/83/83 36/84/84
f 39/85/85 33/86/86 35/87/87 37/88/88
