# This file uses centimeters as units for non-parametric coordinates.

mtllib Wall_LP.mtl
g default
v -0.075000 0.000000 0.000000
v 0.075000 0.000000 0.000000
v -0.075000 3.000000 0.000000
v 0.075000 3.000000 0.000000
v -0.075000 3.000000 -1.000000
v 0.075000 3.000000 -1.000000
v -0.075000 0.000000 -1.000000
v 0.075000 0.000000 -1.000000
vt 0.177287 0.725106
vt 0.190238 0.725147
vt 0.025372 0.127805
vt 0.189414 0.984166
vt 0.025416 0.214145
vt 0.038367 0.214138
vt 0.025547 0.473165
vt 0.038498 0.473158
vt 0.025591 0.559505
vt 0.038542 0.559498
vt 0.276578 0.725422
vt 0.275754 0.984441
vt 0.090948 0.724831
vt 0.090123 0.983850
vt 0.176463 0.984124
vt 0.038323 0.127798
vn 0.000000 0.000000 1.000000
vn 0.000000 0.000000 1.000000
vn 0.000000 0.000000 1.000000
vn 0.000000 0.000000 1.000000
vn 0.000000 1.000000 0.000000
vn 0.000000 1.000000 0.000000
vn 0.000000 1.000000 0.000000
vn 0.000000 1.000000 0.000000
vn 0.000000 0.000000 -1.000000
vn 0.000000 0.000000 -1.000000
vn 0.000000 0.000000 -1.000000
vn 0.000000 0.000000 -1.000000
vn 0.000000 -1.000000 0.000000
vn 0.000000 -1.000000 0.000000
vn 0.000000 -1.000000 0.000000
vn 0.000000 -1.000000 0.000000
vn 1.000000 0.000000 0.000000
vn 1.000000 0.000000 0.000000
vn 1.000000 0.000000 0.000000
vn 1.000000 0.000000 0.000000
vn -1.000000 0.000000 0.000000
vn -1.000000 0.000000 0.000000
vn -1.000000 0.000000 0.000000
vn -1.000000 0.000000 0.000000
s off
g Wall_LP
usemtl initialShadingGroup
f 1/1/1 2/2/2 4/4/3 3/15/4
f 3/3/5 4/16/6 6/6/7 5/5/8
f 5/5/9 6/6/10 8/8/11 7/7/12
f 7/7/13 8/8/14 2/10/15 1/9/16
f 2/2/17 8/11/18 6/12/19 4/4/20
f 7/13/21 1/1/22 3/15/23 5/14/24
