# This file uses centimeters as units for non-parametric coordinates.

mtllib Wall3_LP.mtl
g default
v -0.075000 0.000000 0.000000
v 0.075000 0.000000 0.000000
v -0.075000 3.000000 0.000000
v 0.075000 3.000000 0.000000
v -0.075000 3.000000 -1.000000
v 0.075000 3.000000 -1.000000
v -0.075000 0.000000 -1.000000
v 0.075000 0.000000 -1.000000
v -0.075000 0.000000 -1.000000
v 0.075000 0.000000 -1.000000
v -0.075000 3.000000 -1.000000
v 0.075000 3.000000 -1.000000
v -0.075000 3.000000 -2.000000
v 0.075000 3.000000 -2.000000
v -0.075000 0.000000 -2.000000
v 0.075000 0.000000 -2.000000
v -0.075000 0.000000 -2.000000
v 0.075000 0.000000 -2.000000
v -0.075000 3.000000 -2.000000
v 0.075000 3.000000 -2.000000
v -0.075000 3.000000 -3.000000
v 0.075000 3.000000 -3.000000
v -0.075000 0.000000 -3.000000
v 0.075000 0.000000 -3.000000
vt 0.866120 0.120490
vt 0.879071 0.120490
vt 0.879071 0.379510
vt 0.866120 0.379510
vt 0.506677 0.540163
vt 0.519628 0.540163
vt 0.519628 0.626503
vt 0.506677 0.626503
vt 0.558026 0.540163
vt 0.570977 0.540163
vt 0.570977 0.626503
vt 0.558026 0.626503
vt 0.373932 0.120490
vt 0.460272 0.120490
vt 0.460272 0.379510
vt 0.373932 0.379510
vt 0.540816 0.120490
vt 0.627156 0.120490
vt 0.627156 0.379510
vt 0.540816 0.379510
vt 0.583701 0.540163
vt 0.596652 0.540163
vt 0.596652 0.626504
vt 0.583701 0.626504
vt 0.609375 0.540163
vt 0.622326 0.540163
vt 0.622326 0.626503
vt 0.609375 0.626503
vt 0.207048 0.120490
vt 0.293388 0.120490
vt 0.293388 0.379510
vt 0.207048 0.379510
vt 0.040163 0.120490
vt 0.126503 0.120490
vt 0.126503 0.379510
vt 0.040163 0.379510
vt 0.532352 0.540163
vt 0.545303 0.540163
vt 0.545303 0.626503
vt 0.532352 0.626503
vt 0.943144 0.120490
vt 0.956095 0.120490
vt 0.956095 0.379510
vt 0.943144 0.379510
vt 0.635050 0.540163
vt 0.648001 0.540163
vt 0.648001 0.626504
vt 0.635050 0.626504
vt 0.707700 0.120490
vt 0.794040 0.120490
vt 0.794040 0.379510
vt 0.707700 0.379510
vt 0.207048 0.620490
vt 0.293388 0.620490
vt 0.293388 0.879510
vt 0.207048 0.879510
vn 0.000000 0.000000 1.000000
vn 0.000000 0.000000 1.000000
vn 0.000000 0.000000 1.000000
vn 0.000000 0.000000 1.000000
vn 0.000000 1.000000 0.000000
vn 0.000000 1.000000 0.000000
vn 0.000000 1.000000 0.000000
vn 0.000000 1.000000 0.000000
vn 0.000000 -1.000000 0.000000
vn 0.000000 -1.000000 0.000000
vn 0.000000 -1.000000 0.000000
vn 0.000000 -1.000000 0.000000
vn 1.000000 0.000000 0.000000
vn 1.000000 0.000000 0.000000
vn 1.000000 0.000000 0.000000
vn 1.000000 0.000000 0.000000
vn -1.000000 0.000000 0.000000
vn -1.000000 0.000000 0.000000
vn -1.000000 0.000000 0.000000
vn -1.000000 0.000000 0.000000
vn 0.000000 1.000000 0.000000
vn 0.000000 1.000000 0.000000
vn 0.000000 1.000000 0.000000
vn 0.000000 1.000000 0.000000
vn 0.000000 -1.000000 0.000000
vn 0.000000 -1.000000 0.000000
vn 0.000000 -1.000000 0.000000
vn 0.000000 -1.000000 0.000000
vn 1.000000 0.000000 0.000000
vn 1.000000 0.000000 0.000000
vn 1.000000 0.000000 0.000000
vn 1.000000 0.000000 0.000000
vn -1.000000 0.000000 0.000000
vn -1.000000 0.000000 0.000000
vn -1.000000 0.000000 0.000000
vn -1.000000 0.000000 0.000000
vn 0.000000 1.000000 0.000000
vn 0.000000 1.000000 0.000000
vn 0.000000 1.000000 0.000000
vn 0.000000 1.000000 0.000000
vn 0.000000 0.000000 -1.000000
vn 0.000000 0.000000 -1.000000
vn 0.000000 0.000000 -1.000000
vn 0.000000 0.000000 -1.000000
vn 0.000000 -1.000000 0.000000
vn 0.000000 -1.000000 0.000000
vn 0.000000 -1.000000 0.000000
vn 0.000000 -1.000000 0.000000
vn 1.000000 0.000000 0.000000
vn 1.000000 0.000000 0.000000
vn 1.000000 0.000000 0.000000
vn 1.000000 0.000000 0.000000
vn -1.000000 0.000000 0.000000
vn -1.000000 0.000000 0.000000
vn -1.000000 0.000000 0.000000
vn -1.000000 0.000000 0.000000
s off
g Wall3_LP
usemtl initialShadingGroup
f 1/1/1 2/2/2 4/3/3 3/4/4
f 3/5/5 4/6/6 6/7/7 5/8/8
f 7/9/9 8/10/10 2/11/11 1/12/12
f 2/13/13 8/14/14 6/15/15 4/16/16
f 7/17/17 1/18/18 3/19/19 5/20/20
f 11/21/21 12/22/22 14/23/23 13/24/24
f 15/25/25 16/26/26 10/27/27 9/28/28
f 10/29/29 16/30/30 14/31/31 12/32/32
f 15/33/33 9/34/34 11/35/35 13/36/36
f 19/37/37 20/38/38 22/39/39 21/40/40
f 21/41/41 22/42/42 24/43/43 23/44/44
f 23/45/45 24/46/46 18/47/47 17/48/48
f 18/49/49 24/50/50 22/51/51 20/52/52
f 23/53/53 17/54/54 19/55/55 21/56/56
